<svg width="50" height="40" viewBox="0 0 50 40" fill="none" xmlns="http://www.w3.org/2000/svg">
<g clip-path="url(#clip0_4806_3193)">
<path d="M8.58755 26.2881H8.57895H8.58755Z" fill="black" stroke="black" stroke-width="0.5"/>
<path d="M20.137 12.3932C20.5114 12.7666 21.1247 12.7666 21.4991 12.3932C21.8735 12.0198 21.8735 11.4081 21.4991 11.0347L16.433 5.98206C16.1861 5.73578 15.8356 5.64045 15.501 5.72784C15.3417 5.77551 15.1904 5.85495 15.0709 5.98206C14.6965 6.35545 14.6965 6.96716 15.0709 7.34055L20.137 12.3932Z" fill="black" stroke="black" stroke-width="0.5"/>
<path d="M29.5364 9.07249C30.0701 9.07249 30.5002 8.6435 30.5002 8.11122V0.961271C30.5002 0.428997 30.0701 0 29.5364 0C29.0027 0 28.5726 0.428997 28.5726 0.961271V8.11122C28.5726 8.6435 29.0027 9.07249 29.5364 9.07249Z" fill="black" stroke="black" stroke-width="0.5"/>
<path d="M49.0362 19.4478H41.8751C41.3414 19.4478 40.9113 19.8768 40.9113 20.409C40.9113 20.9413 41.3414 21.3703 41.8751 21.3703H49.0362C49.5698 21.3703 50 20.9413 50 20.409C50 19.8768 49.5698 19.4478 49.0362 19.4478Z" fill="black" stroke="black" stroke-width="0.5"/>
<path d="M44.2887 6.65741C44.2887 6.40319 44.1851 6.15691 44.0099 5.98214C43.7629 5.73586 43.4124 5.64053 43.0779 5.73586C42.9186 5.77558 42.7672 5.86297 42.6477 5.98214L37.5816 11.0348C37.2072 11.4082 37.2072 12.0199 37.5816 12.3933C37.956 12.7666 38.5694 12.7666 38.9437 12.3933L44.0099 7.34063C44.1931 7.1579 44.2887 6.91163 44.2887 6.65741Z" fill="black" stroke="black" stroke-width="0.5"/>
<path d="M37.7967 20.4092C37.7967 15.873 34.0848 12.1709 29.5364 12.1709C26.2864 12.1709 23.4746 14.0617 22.1284 16.7945C21.0769 16.4688 19.9618 16.294 18.8147 16.294C13.7805 16.302 9.41533 19.6307 7.97355 24.3655C3.59248 24.3973 0 27.869 0 32.1669C0 36.4966 3.63231 40.0001 8.05321 40.0001H29.2656C33.6865 40.0001 37.3188 36.4966 37.3188 32.1669C37.3188 29.9902 36.3868 28.0517 34.9132 26.6535C36.6815 25.1441 37.8126 22.9038 37.8126 20.4013L37.7967 20.4092ZM35.3831 32.1669C35.3831 35.4241 32.6669 38.0696 29.2656 38.0696H18.8227H8.05321C4.64394 38.0696 1.93564 35.4241 1.93564 32.1669C1.93564 28.9097 4.6519 26.2642 8.05321 26.2642C8.22845 26.2642 8.41166 26.2642 8.5869 26.2881C9.06484 26.3278 9.50295 26.01 9.61446 25.5493C10.6022 21.2593 14.4097 18.2166 18.8227 18.2086C19.7467 18.2086 20.6388 18.3516 21.4832 18.5979C22.1204 18.7806 22.7258 19.0269 23.2993 19.3367C25.6412 20.592 27.4176 22.8084 28.0468 25.5413C28.1584 26.01 28.5885 26.3278 29.0744 26.2881C29.1381 26.2881 29.2018 26.2801 29.2656 26.2722C29.8949 26.2722 30.5002 26.3675 31.0658 26.5344C31.9022 26.7806 32.6509 27.2017 33.2882 27.7419C34.5627 28.8223 35.3752 30.4112 35.3752 32.1749L35.3831 32.1669ZM33.3121 25.4778C32.2447 24.874 31.018 24.5085 29.7196 24.4291C28.8036 21.3626 26.6688 18.8919 23.9207 17.5016C24.9721 15.4758 27.091 14.0934 29.5444 14.0934C33.0492 14.0934 35.877 16.9058 35.877 20.4092C35.877 22.4986 34.8654 24.3338 33.3121 25.4778Z" fill="black" stroke="black" stroke-width="0.5"/>
</g>
<defs>
<clipPath id="clip0_4806_3193">
<rect width="50" height="40" fill="white"/>
</clipPath>
</defs>
</svg>
