<svg width="50" height="40" viewBox="0 0 50 40" fill="none" xmlns="http://www.w3.org/2000/svg">
<path d="M30.9427 24.6236V4.44268C30.9427 3.26441 30.4746 2.1344 29.6415 1.30123C28.8083 0.468067 27.6783 0 26.5 0C25.3217 0 24.1917 0.468067 23.3586 1.30123C22.5254 2.1344 22.0573 3.26441 22.0573 4.44268V24.6236C20.5297 25.5867 19.3564 27.0203 18.7143 28.7083C18.0722 30.3962 17.996 32.2472 18.4973 33.9822C18.9986 35.7172 20.0502 37.2423 21.4936 38.3277C22.937 39.4131 24.694 40 26.5 40C28.306 40 30.063 39.4131 31.5064 38.3277C32.9498 37.2423 34.0014 35.7172 34.5027 33.9822C35.004 32.2472 34.9279 30.3962 34.2857 28.7083C33.6436 27.0203 32.4704 25.5867 30.9427 24.6236ZM26.5 37.7628C25.2981 37.7664 24.1219 37.4147 23.1192 36.7518C22.1165 36.089 21.3321 35.1446 20.8645 34.0374C20.3969 32.9301 20.267 31.7093 20.4911 30.5284C20.7152 29.3476 21.2833 28.2592 22.124 27.4002C22.7305 26.7729 23.4656 26.2842 24.2787 25.9675V4.44268C24.2787 3.85354 24.5127 3.28854 24.9293 2.87196C25.3459 2.45537 25.9109 2.22134 26.5 2.22134C27.0891 2.22134 27.6542 2.45537 28.0707 2.87196C28.4873 3.28854 28.7214 3.85354 28.7214 4.44268V25.9675C29.8652 26.4156 30.8478 27.1977 31.5411 28.2119C32.2344 29.2261 32.6064 30.4256 32.6087 31.6541C32.6058 33.2733 31.9612 34.8254 30.8163 35.9703C29.6713 37.1153 28.1192 37.7598 26.5 37.7628Z" fill="black"/>
<path d="M30.1763 29.1552C29.7431 28.5235 29.1538 28.0147 28.4659 27.678C28.195 27.5363 27.9078 27.4281 27.6107 27.3559V11.1068C27.6107 10.8122 27.4937 10.5297 27.2854 10.3214C27.0771 10.1131 26.7946 9.99609 26.5 9.99609C26.2054 9.99609 25.9229 10.1131 25.7146 10.3214C25.5064 10.5297 25.3893 10.8122 25.3893 11.1068V27.3559C25.0922 27.4281 24.8051 27.5363 24.5341 27.678C23.8462 28.0147 23.257 28.5235 22.8237 29.1552C22.3234 29.8925 22.0564 30.7632 22.0573 31.6542C22.0573 32.8324 22.5254 33.9624 23.3586 34.7956C24.1917 35.6288 25.3217 36.0968 26.5 36.0968C27.6783 36.0968 28.8083 35.6288 29.6415 34.7956C30.4746 33.9624 30.9427 32.8324 30.9427 31.6542C30.9436 30.7632 30.6766 29.8925 30.1763 29.1552ZM26.5 33.8755C25.9109 33.8755 25.3459 33.6415 24.9293 33.2249C24.5127 32.8083 24.2787 32.2433 24.2787 31.6542C24.2761 31.2974 24.364 30.9459 24.5341 30.6323C24.7248 30.2551 25.0222 29.9422 25.3893 29.7327C25.727 29.5377 26.1101 29.4351 26.5 29.4351C26.8899 29.4351 27.273 29.5377 27.6107 29.7327C27.9778 29.9422 28.2752 30.2551 28.4659 30.6323C28.636 30.9459 28.7239 31.2974 28.7214 31.6542C28.7214 32.2433 28.4873 32.8083 28.0707 33.2249C27.6542 33.6415 27.0891 33.8755 26.5 33.8755Z" fill="black"/>
<circle cx="14.5" cy="3.5" r="2.75" stroke="black" stroke-width="1.5"/>
</svg>
