<svg width="200" height="56" viewBox="0 0 200 56" fill="none" xmlns="http://www.w3.org/2000/svg">
<g id="&#229;&#156;&#150;&#229;&#177;&#164; 2">
<g id="Group">
<path id="Vector" d="M84.5151 39.9898C84.6854 39.9898 84.8264 39.9603 84.938 39.8953C85.0497 39.8302 85.1671 39.641 85.22 39.2272C85.2729 38.8133 85.3023 37.9265 85.3023 36.7559C85.8956 37.3294 87.1174 38.027 87.9399 38.3404C87.8576 39.5464 87.7401 40.8116 87.5404 41.3556C87.3113 41.9586 86.9177 42.3074 86.4066 42.5912C85.9837 42.8159 85.2729 42.875 84.7912 42.875H83.0876C82.4062 42.875 81.5544 42.6503 81.0433 42.1123C80.5322 41.5743 80.3031 40.9062 80.3031 38.973V34.6926H78.6583C78.2882 38.973 77.0428 41.5743 71.9086 43.1292C71.656 42.337 70.9746 41.1605 70.3519 40.4628C67.4029 41.1605 64.454 41.7931 62.069 42.3311L61.4169 38.9079C62.6094 38.7187 64.0545 38.4941 65.6112 38.1807V29.9037H61.7811V26.7348H65.6112V24.4172H63.1146V23.3412C62.7445 23.755 62.351 24.1334 61.9809 24.4822C61.7811 23.625 61.1584 21.5025 60.7061 20.5802C62.862 18.8657 65.0473 16.1106 66.3221 13.2255L68.8187 14.4966C68.6483 14.875 68.478 15.2593 68.3076 15.6377C70.1522 16.8083 71.9086 18.2035 72.9601 19.3505L72.0261 21.0946H75.4861C75.3158 20.3319 75.0867 19.4746 74.8047 18.7474L77.1016 18.239H72.59V15.3834H78.065C77.8946 14.875 77.6949 14.3665 77.4717 13.9586L80.45 13.1664C80.7907 13.799 81.1902 14.6267 81.4721 15.3834H87V18.239H82.3768L84.9557 18.7474C84.5856 19.6047 84.2155 20.3969 83.9041 21.0946H87.4758V24.0093H71.8499V21.4079L71.3388 22.3302L71.2566 22.2356V24.4231H68.5367V26.7407H72.1083V29.9096H68.5367V37.6132L72.3668 36.8209L72.5665 39.4223C74.6637 38.4409 75.2335 36.951 75.4861 34.6985H73.2715V25.1208H86.3714V34.6985H83.4224V39.0735C83.4224 39.4873 83.4518 39.7415 83.5341 39.8361C83.6163 39.9307 83.7338 39.9958 83.9041 39.9958H84.4975L84.5151 39.9898ZM64.1838 31.1098C64.6655 32.8539 65.0649 35.1064 65.2059 36.5667L62.9384 37.2643C62.8796 35.7449 62.4861 33.4569 62.0572 31.7128L64.1838 31.1098ZM70.3636 21.2838C69.3709 20.3023 68.0961 19.315 66.8214 18.3986C66.2281 19.4155 65.5466 20.3674 64.8652 21.2838H70.3695H70.3636ZM68.8598 35.9932C69.2593 34.598 69.6822 32.3454 69.8526 30.8556L72.2904 31.5236C71.7794 33.2973 71.327 35.2956 70.9276 36.6317L68.8598 35.9991V35.9932ZM76.1206 28.8277H83.4107V27.4324H76.1206V28.8277ZM76.1206 32.3809H83.4107V30.9856H76.1206V32.3809ZM77.5657 18.239C77.9357 19.0963 78.3293 20.2373 78.4703 21.0946H80.9963C81.337 20.2078 81.7071 19.0963 81.8775 18.239H77.5657Z" fill="white"/>
<path id="Vector_2" d="M97.7325 21.538H102.268V24.7069H99.489L101.193 25.1799C100.711 26.2914 100.2 27.3674 99.7475 28.3843H101.704V31.5532H97.7325V34.0895H102.268V37.2584H97.7325V42.9046H94.6132V37.2584H89.7081V34.0895H94.6132V31.5532H90.3895V28.3843H92.4044C92.2047 27.4324 91.7818 26.2263 91.4117 25.2449L92.9978 24.7069H89.7375V21.538H94.6132V19.3505H90.5011V16.2407H94.6132V13.5152H97.7325V16.2407H101.616V19.3505H97.7325V21.538ZM96.9336 28.3843C97.4447 27.2137 97.9558 25.848 98.2965 24.7069H93.9553C94.437 25.7829 94.9187 27.054 95.0597 27.9113L93.7849 28.3843H96.9336ZM115.426 26.2914C114.886 30.0338 113.893 33.4924 112.477 36.4367C113.611 37.8615 114.915 39.0025 116.36 39.8302C115.649 40.5279 114.657 41.8936 114.146 42.81C112.871 41.9527 111.708 40.8412 110.656 39.511C109.722 40.9062 108.641 42.0769 107.425 43.0937C107.114 42.5557 106.603 41.9527 106.092 41.3792V42.9637H103.031V14.7508H114.745V20.7103C114.745 22.3302 114.433 23.2466 113.329 23.7551C112.254 24.2635 110.721 24.2931 108.647 24.2931C108.506 23.2762 108.077 21.9755 107.684 21.0591C109.076 21.1241 110.633 21.1241 111.056 21.1241C111.479 21.0946 111.626 21 111.626 20.6512V18.0498H106.098V25.6292H112.847L113.388 25.4696L115.432 26.2914H115.426ZM106.098 39.7711C107.12 38.8488 107.972 37.7728 108.735 36.5667C107.66 34.6334 106.808 32.4105 106.098 30.0338V39.7711ZM108.447 28.6089C108.959 30.2584 109.611 31.8725 110.404 33.3328C111.026 31.8725 111.508 30.2584 111.878 28.6089H108.447Z" fill="white"/>
<path id="Vector_3" d="M125.748 31.2044V42.5262H124.414V31.2044H118.516V29.8091H124.414V25.9721H118.405V24.6064H126.376C126.969 22.9865 127.68 20.6098 128.08 18.9958L129.384 19.3742C128.873 21.0532 128.25 23.087 127.657 24.6064H131.598V25.9721H125.759V29.8091H131.405V31.2044H125.759H125.748ZM122.546 33.587C121.865 35.9046 120.731 38.3108 119.568 39.8953C119.368 39.7061 118.857 39.2627 118.546 39.1031C119.738 37.5482 120.731 35.3902 121.353 33.2678L122.546 33.587ZM131.164 18.647H118.827V17.2813H124.866C124.467 16.2999 123.874 15.0938 123.392 14.1715L124.696 13.7576C125.319 14.8691 126.03 16.2644 126.4 17.2754H131.164V18.6411V18.647ZM122.117 24.2635C121.976 22.9629 121.494 20.87 120.895 19.3505L122.029 19.0667C122.652 20.5862 123.192 22.62 123.333 23.8852L122.111 24.2635H122.117ZM128.473 33.1732C129.437 34.8522 130.459 37.0102 130.911 38.435L129.86 39.0676C129.407 37.6073 128.385 35.3547 127.475 33.6757L128.467 33.1672L128.473 33.1732ZM143.929 26.1022H140.528V42.4316H139.194V26.1022H134.542V27.6571C134.542 32.1267 134.171 38.2162 131.452 42.402C131.252 42.0828 130.741 41.6394 130.429 41.4502C133.008 37.489 133.267 31.9375 133.267 27.6571V16.9384C136.474 16.3649 140.246 15.4781 142.255 14.5912L143.447 15.7323C141.121 16.6546 137.661 17.4764 134.542 17.9493V24.6715H143.929V26.0963V26.1022Z" fill="white"/>
<path id="Vector_4" d="M149.345 24.8015V42.6562H148.012V15.2534H157.963V24.8015H149.339H149.345ZM149.345 16.4949V19.3801H156.659V16.4949H149.345ZM156.665 23.5659V20.6157H149.351V23.5659H156.665ZM164.26 38.1216V41.6098H162.985V38.1216H151.501V36.8505H154.62V28.1301H152.265V26.8944H166.586V28.1301H164.26V36.8505H167.15V38.1216H164.26ZM155.866 28.1301V30.288H162.985V28.1301H155.866ZM155.866 33.5515H162.985V31.4291H155.866V33.5515ZM162.985 36.8505V34.728H155.866V36.8505H162.985ZM171.069 40.4333C171.069 41.5448 170.839 42.0177 170.164 42.3015C169.512 42.5557 168.29 42.5853 166.393 42.5853C166.334 42.1714 166.14 41.5388 165.94 41.0954C167.444 41.125 168.807 41.125 169.201 41.0954C169.6 41.0954 169.741 40.9358 169.741 40.4628V24.7956H160.865V15.2475H171.074V40.4274L171.069 40.4333ZM162.163 16.4949V19.3801H169.735V16.4949H162.163ZM169.735 23.5659V20.6157H162.163V23.5659H169.735Z" fill="white"/>
<path id="Vector_5" d="M177.589 34.125C177.19 36.8505 176.655 39.8361 176.056 41.799C175.803 41.6748 175.263 41.4206 174.922 41.2905C175.604 39.2922 176.085 36.4721 176.397 33.9003L177.589 34.125ZM183.234 25.7238C184.028 27.6926 184.879 30.3235 185.22 31.8784L184.057 32.3514C183.975 31.8429 183.828 31.2753 183.657 30.6368C176.849 31.8074 176.056 32.0321 175.574 32.3159C175.516 31.9671 175.322 31.2044 175.151 30.826C175.662 30.7314 176.314 29.8742 177.107 28.7035C177.589 28.0709 178.641 26.451 179.804 24.4527C176.344 24.9257 175.75 25.0853 175.439 25.2745C175.357 24.9257 175.157 24.228 174.987 23.8142C175.439 23.7196 175.891 22.9924 176.491 22.0405C177.113 21.0591 179.158 17.3463 180.432 13.8581L181.654 14.4907C180.291 17.6951 178.647 21.0236 176.978 23.4949L180.579 23.1166C181.343 21.7213 182.083 20.2019 182.735 18.7061L183.928 19.4037C181.971 23.3649 179.704 27.3319 177.378 30.3767L183.305 29.4248C182.964 28.2838 182.565 27.1073 182.171 26.0608L183.246 25.712L183.234 25.7238ZM180.427 33.8057C180.767 35.9637 181.137 38.7542 181.22 40.5929L180.086 40.8767C180.004 39.0084 179.686 36.1824 179.322 34.06L180.427 33.8057ZM183.464 33.1081C184.116 35.0769 184.856 37.6427 185.191 39.2922L184.116 39.7061C183.804 37.9916 183.064 35.4257 182.441 33.4569L183.464 33.1081ZM199.994 40.5633C199.994 41.6098 199.765 42.0532 199.172 42.337C198.578 42.5912 197.445 42.6208 195.77 42.5912C195.688 42.2128 195.518 41.5743 195.347 41.1309C196.681 41.1959 197.873 41.1605 198.238 41.1605C198.608 41.1309 198.719 41.0008 198.719 40.587V16.8733H187.123V42.6562H185.849V15.4485H200V40.5633H199.994ZM187.969 23.5659H194.008C194.519 21.9814 195.201 19.6047 195.512 18.0144L196.675 18.4282C196.193 20.0777 195.6 22.076 195.06 23.5659H198.067V24.8961H187.969V23.5659ZM195.882 34.9468C196.393 34.9468 197.186 34.9468 197.639 34.8226C197.668 35.2365 197.721 35.7745 197.779 36.0938C197.409 36.2179 196.675 36.2179 195.935 36.2179H191.453C189.92 36.2179 189.526 35.5853 189.526 33.8057V29.9687H188.363V28.6385H192.816C192.563 27.7162 191.934 26.386 191.423 25.4046L192.416 24.9316C192.957 25.913 193.609 27.3083 193.891 28.136L193.009 28.6444H197.545V29.9747H190.736V33.8412C190.736 34.6985 190.848 34.9527 191.476 34.9527H195.87L195.882 34.9468ZM190.213 17.9493C191.006 19.3742 191.717 21.3725 191.97 22.6731L190.948 23.087C190.695 21.7863 190.014 19.788 189.244 18.2981L190.207 17.9493H190.213Z" fill="white"/>
</g>
<g id="Clip path group">
<mask id="mask0_4833_21889" style="mask-type:luminance" maskUnits="userSpaceOnUse" x="0" y="0" width="56" height="56">
<g id="clippath">
<path id="Vector_6" d="M27.8212 56C43.1864 56 55.6424 43.464 55.6424 28C55.6424 12.536 43.1864 0 27.8212 0C12.456 0 0 12.536 0 28C0 43.464 12.456 56 27.8212 56Z" fill="white"/>
</g>
</mask>
<g mask="url(#mask0_4833_21889)">
<g id="Group_2">
<path id="Vector_7" d="M63.3496 28C63.3496 48.5448 46.8014 65.1993 26.3878 65.1993C5.97428 65.1993 -10.5739 48.5448 -10.5739 28C-10.5739 7.45524 5.97428 -9.19932 26.3878 -9.19932C46.8014 -9.19932 63.3496 7.45524 63.3496 28Z" fill="url(#paint0_linear_4833_21889)"/>
<g id="Group_3" opacity="0.8">
<g id="Group_4">
<g id="Group_5">
<path id="Vector_8" d="M8.54132 12.2263H8.21822V-0.928217L-4.01229 -13.2373H-9.98656L-12.7593 -16.0279L-12.5361 -16.2525L-9.85732 -13.5566H-3.87718L8.54132 -1.05828V12.2263Z" fill="white"/>
<path id="Vector_9" d="M8.01849 12.2086C8.01849 12.4096 8.1771 12.5692 8.37683 12.5692C8.57656 12.5692 8.73517 12.4096 8.73517 12.2086C8.73517 12.0076 8.57656 11.8479 8.37683 11.8479C8.1771 11.8479 8.01849 12.0076 8.01849 12.2086Z" fill="white"/>
</g>
<g id="Group_6">
<path id="Vector_10" d="M11.4257 15.0583H10.7913V-1.60217L-3.03119 -15.5076L-2.58473 -15.9628L11.4257 -1.86231V15.0583Z" fill="white"/>
<path id="Vector_11" d="M10.5093 15.0287C10.5093 15.3598 10.7795 15.6318 11.1085 15.6318C11.4374 15.6318 11.7077 15.3598 11.7077 15.0287C11.7077 14.6976 11.4374 14.4257 11.1085 14.4257C10.7795 14.4257 10.5093 14.6976 10.5093 15.0287Z" fill="white"/>
</g>
<g id="Group_7">
<path id="Vector_12" d="M15.015 12.2263H14.6978V-0.425701L6.3855 -8.79141V-16.1402H6.70272V-8.92148L15.015 -0.55577V12.2263Z" fill="white"/>
<path id="Vector_13" d="M14.498 12.2086C14.498 12.4096 14.6567 12.5692 14.8564 12.5692C15.0561 12.5692 15.2147 12.4096 15.2147 12.2086C15.2147 12.0076 15.0561 11.8479 14.8564 11.8479C14.6567 11.8479 14.498 12.0076 14.498 12.2086Z" fill="white"/>
</g>
<g id="Group_8">
<path id="Vector_14" d="M7.2784 18.8775H6.96118V-0.242405L-3.27791 -10.5473H-14.7624L-20.2079 -16.0279L-19.9847 -16.2525L-14.6273 -10.8666H-3.1428L7.2784 -0.372473V18.8775Z" fill="white"/>
<path id="Vector_15" d="M7.11975 19.2204C7.31766 19.2204 7.47809 19.0589 7.47809 18.8598C7.47809 18.6606 7.31766 18.4991 7.11975 18.4991C6.92185 18.4991 6.76141 18.6606 6.76141 18.8598C6.76141 19.0589 6.92185 19.2204 7.11975 19.2204Z" fill="white"/>
</g>
<g id="Group_9">
<path id="Vector_16" d="M5.44559 17.0802H5.12837V1.12921L-4.74651 -8.80323H-16.0841V-9.12248H-4.61139L5.44559 0.99914V17.0802Z" fill="white"/>
<path id="Vector_17" d="M4.92859 17.0625C4.92859 17.2635 5.0872 17.4231 5.28693 17.4231C5.48666 17.4231 5.64527 17.2635 5.64527 17.0625C5.64527 16.8615 5.48666 16.7018 5.28693 16.7018C5.0872 16.7018 4.92859 16.8615 4.92859 17.0625Z" fill="white"/>
</g>
<g id="Group_10">
<path id="Vector_18" d="M6.29734 24.2871L6.06824 24.0625L16.8184 13.2432V-6.23143L26.7814 -16.2525L27.0046 -16.0279L17.1415 -6.10136V13.3733L6.29734 24.2871Z" fill="white"/>
<path id="Vector_19" d="M5.93905 23.9088C5.79807 24.0507 5.79807 24.2812 5.93905 24.4172C6.08004 24.5591 6.30914 24.5591 6.44425 24.4172C6.58524 24.2753 6.58524 24.0448 6.44425 23.9088C6.30327 23.7669 6.07416 23.7669 5.93905 23.9088Z" fill="white"/>
</g>
<g id="Group_11">
<path id="Vector_20" d="M7.18433 26.0312H1.74463V25.712H7.05509L18.287 14.402V-5.07264L29.4013 -16.2525L29.6246 -16.0279L18.61 -4.93666V14.538L7.18433 26.0312Z" fill="white"/>
<path id="Vector_21" d="M1.76227 25.511C1.56254 25.511 1.40393 25.6706 1.40393 25.8716C1.40393 26.0726 1.56254 26.2323 1.76227 26.2323C1.962 26.2323 2.12061 26.0726 2.12061 25.8716C2.12061 25.6706 1.962 25.511 1.76227 25.511Z" fill="white"/>
</g>
<g id="Group_12">
<path id="Vector_22" d="M21.7998 4.94848L21.3534 4.49916L24.8957 0.934127V-4.7652L32.8379 -12.7644L33.2902 -12.3091L25.5301 -4.50506V1.20018L21.7998 4.94848Z" fill="white"/>
<path id="Vector_23" d="M21.6002 5.30912C21.9312 5.30912 22.1994 5.03913 22.1994 4.70608C22.1994 4.37303 21.9312 4.10303 21.6002 4.10303C21.2693 4.10303 21.001 4.37303 21.001 4.70608C21.001 5.03913 21.2693 5.30912 21.6002 5.30912Z" fill="white"/>
</g>
<g id="Group_13">
<path id="Vector_24" d="M20.6662 12.4688L20.4371 12.2441L31.9215 0.679909V-6.23141L41.6378 -16.0101L41.8669 -15.7855L32.2446 -6.10134V0.815889L20.6662 12.4688Z" fill="white"/>
<path id="Vector_25" d="M20.3078 12.0844C20.1668 12.2263 20.1668 12.4569 20.3078 12.5929C20.4488 12.7348 20.6779 12.7348 20.813 12.5929C20.954 12.451 20.954 12.2204 20.813 12.0844C20.672 11.9426 20.4429 11.9426 20.3078 12.0844Z" fill="white"/>
</g>
<g id="Group_14">
<path id="Vector_26" d="M11.3435 27.2018L11.1144 26.9772L37.0323 0.892706V-4.88939L49.298 -17.2281L49.5212 -17.0034L37.3553 -4.75341V1.02277L11.3435 27.2018Z" fill="white"/>
<path id="Vector_27" d="M10.9851 26.8235C10.8441 26.9654 10.8441 27.1959 10.9851 27.3319C11.1261 27.4738 11.3552 27.4738 11.4903 27.3319C11.6313 27.19 11.6313 26.9595 11.4903 26.8235C11.3493 26.6816 11.1202 26.6816 10.9851 26.8235Z" fill="white"/>
</g>
<path id="Vector_28" d="M-11.3788 39.0085L-11.8311 38.5532L-2.26758 28.9282H11.6548L56.2591 -15.9628L56.7114 -15.5076L11.9191 29.5667H-2.00324L-11.3788 39.0085Z" fill="white"/>
<path id="Vector_29" d="M-11.5021 41.8286L-11.7312 41.6039L-1.39225 31.2044H12.3539L45.2858 -1.93918H66.0459L80.027 -16.0101L80.2503 -15.7855L66.1752 -1.61992H45.415L12.489 31.5237H-1.26301L-11.5021 41.8286Z" fill="white"/>
<g id="Group_15">
<path id="Vector_30" d="M23.1687 24.6714L22.9454 24.4408L46.3314 0.904526H63.89V1.22378H46.4666L23.1687 24.6714Z" fill="white"/>
<path id="Vector_31" d="M22.8162 24.2872C22.6752 24.4291 22.6752 24.6596 22.8162 24.7956C22.9572 24.9316 23.1863 24.9375 23.3214 24.7956C23.4624 24.6537 23.4624 24.4231 23.3214 24.2872C23.1804 24.1453 22.9513 24.1453 22.8162 24.2872Z" fill="white"/>
</g>
<g id="Group_16">
<path id="Vector_32" d="M22.8515 34.5093L22.1759 33.8353L45.2094 10.6537H57.6867L64.8358 3.46454L65.5055 4.14444L58.0861 11.6174H45.603L22.8515 34.5093Z" fill="white"/>
<path id="Vector_33" d="M17.7642 34.4088C17.4118 34.7635 17.4118 35.3311 17.7642 35.6858C18.1167 36.0405 18.6806 36.0405 19.0331 35.6858C19.3856 35.3311 19.3856 34.7635 19.0331 34.4088C18.6806 34.0541 18.1167 34.0541 17.7642 34.4088Z" fill="white"/>
</g>
<g id="Group_17">
<path id="Vector_34" d="M21.7882 34.9054L21.5591 34.6807L34.518 21.6385H38.6066L44.1638 16.0456H50.5963V16.3648H44.2989L38.7358 21.9636H34.6473L21.7882 34.9054Z" fill="white"/>
<path id="Vector_35" d="M50.4493 16.5659C50.6472 16.5659 50.8077 16.4044 50.8077 16.2052C50.8077 16.0061 50.6472 15.8446 50.4493 15.8446C50.2514 15.8446 50.091 16.0061 50.091 16.2052C50.091 16.4044 50.2514 16.5659 50.4493 16.5659Z" fill="white"/>
<path id="Vector_36" d="M20.4957 36.3598C20.6936 36.3598 20.8541 36.1983 20.8541 35.9991C20.8541 35.8 20.6936 35.6385 20.4957 35.6385C20.2978 35.6385 20.1374 35.8 20.1374 35.9991C20.1374 36.1983 20.2978 36.3598 20.4957 36.3598Z" fill="white"/>
</g>
<path id="Vector_37" d="M22.7985 36.614C22.5988 36.614 22.4402 36.4544 22.4402 36.2534C22.4402 36.0524 22.5988 35.8927 22.7985 35.8927C22.9983 35.8927 23.1569 36.0524 23.1569 36.2534C23.1569 36.4544 22.9983 36.614 22.7985 36.614Z" fill="white"/>
<g id="Group_18">
<path id="Vector_38" d="M34.9351 31.1985H12.3363V30.56H34.6708L45.8145 19.3387L46.2669 19.7939L34.9351 31.1985Z" fill="white"/>
<path id="Vector_39" d="M45.5971 19.1613C45.8321 18.9248 46.2081 18.9248 46.443 19.1613C46.678 19.3978 46.678 19.7762 46.443 20.0127C46.2081 20.2492 45.8321 20.2492 45.5971 20.0127C45.3622 19.7762 45.3622 19.3978 45.5971 19.1613Z" fill="white"/>
<path id="Vector_40" d="M12.3657 31.4823C12.6966 31.4823 12.9649 31.2123 12.9649 30.8792C12.9649 30.5462 12.6966 30.2762 12.3657 30.2762C12.0347 30.2762 11.7665 30.5462 11.7665 30.8792C11.7665 31.2123 12.0347 31.4823 12.3657 31.4823Z" fill="white"/>
</g>
<g id="Group_19">
<path id="Vector_41" d="M-12.818 42.1951L-13.0412 41.9645L-5.76868 34.6452H4.69363L9.31092 39.2922H30.2297L50.937 18.4518H85.8192L94.2842 9.93832H105.575V10.2576H94.4134L85.9484 18.777H51.0662L30.3648 39.6115H9.1758L4.5644 34.9645H-5.63357L-12.818 42.1951Z" fill="white"/>
</g>
<g id="Group_20">
<path id="Vector_42" d="M41.068 35.2897L40.6215 34.8345L51.683 23.7019H85.4726L94.1315 14.9932H105.763V15.6318H94.39L85.737 24.3404H51.9474L41.068 35.2897Z" fill="white"/>
<path id="Vector_43" d="M32.9084 44.8851C32.6735 45.1216 32.2975 45.1216 32.0625 44.8851C31.8275 44.6486 31.8275 44.2703 32.0625 44.0338C32.2975 43.7973 32.6735 43.7973 32.9084 44.0338C33.1434 44.2703 33.1434 44.6486 32.9084 44.8851Z" fill="white"/>
</g>
<g id="Group_21">
<path id="Vector_44" d="M40.5628 39.174L40.3395 38.9493L52.5994 26.6106H87.7401L95.5296 18.777H104.3V19.0963H95.6588L87.8694 26.9299H52.7287L40.5628 39.174Z" fill="white"/>
</g>
<g id="Group_22">
<path id="Vector_45" d="M43.6057 41.592L43.3824 41.3674L56.594 28.0709H91.9579L99.5006 20.4797H106.891V20.799H99.6299L92.0871 28.3902H56.7291L43.6057 41.592Z" fill="white"/>
</g>
<g id="Group_23">
<path id="Vector_46" d="M44.0698 43.4839L43.8407 43.2534L57.1991 29.8091H93.6321L101.075 22.3243H106.362V22.6436H101.204L93.7673 30.1284H57.3342L44.0698 43.4839Z" fill="white"/>
<path id="Vector_47" d="M44.2225 43.6081C44.0815 43.75 43.8524 43.75 43.7173 43.6081C43.5821 43.4662 43.5763 43.2357 43.7173 43.0997C43.8582 42.9637 44.0873 42.9578 44.2225 43.0997C44.3576 43.2416 44.3634 43.4721 44.2225 43.6081Z" fill="white"/>
</g>
<g id="Group_24">
<path id="Vector_48" d="M69.3298 42.1182H49.9912V41.799H69.1946L73.1011 37.8733H107.936V38.1926H73.2304L69.3298 42.1182Z" fill="white"/>
<path id="Vector_49" d="M50.0089 42.3192C50.2068 42.3192 50.3672 42.1578 50.3672 41.9586C50.3672 41.7594 50.2068 41.598 50.0089 41.598C49.8109 41.598 49.6505 41.7594 49.6505 41.9586C49.6505 42.1578 49.8109 42.3192 50.0089 42.3192Z" fill="white"/>
</g>
<g id="Group_25">
<path id="Vector_50" d="M6.83195 41.0954L10.8794 45.1748H28.532L31.6572 48.3201H61.2524L61.2994 48.3674L64.9298 52.0211L64.7066 52.2458L61.1232 48.6394H31.5279L28.3969 45.4941H10.7502L6.69684 41.4147" fill="white"/>
<path id="Vector_51" d="M6.97291 41.5152C6.74381 41.7458 6.36785 41.7458 6.13875 41.5152C5.90964 41.2846 5.90964 40.9063 6.13875 40.6757C6.36785 40.4451 6.74381 40.4451 6.97291 40.6757C7.20201 40.9063 7.20201 41.2846 6.97291 41.5152Z" fill="white"/>
</g>
<g id="Group_26">
<path id="Vector_52" d="M105.851 47.8235H65.3057L62.4273 46.2272H38.1777V45.2694H62.674L65.5525 46.8657H105.851V47.8235Z" fill="white"/>
<path id="Vector_53" d="M38.2189 46.6529C37.7254 46.6529 37.3201 46.2508 37.3201 45.7483C37.3201 45.2458 37.7195 44.8438 38.2189 44.8438C38.7182 44.8438 39.1176 45.2458 39.1176 45.7483C39.1176 46.2508 38.7182 46.6529 38.2189 46.6529Z" fill="white"/>
</g>
<g id="Group_27">
<path id="Vector_54" d="M0.229019 16.5481L-11.044 5.20858H-31.0581L-37.1909 11.3809H-53.5277L-73.0366 -8.25341L-72.8075 -8.47807L-53.3925 11.0616H-37.3202L-31.1873 4.88933H-10.9089L0.452248 16.3234L0.229019 16.5481Z" fill="white"/>
<path id="Vector_55" d="M0.58158 16.1698C0.722566 16.3117 0.722566 16.5422 0.58158 16.6782C0.440594 16.8201 0.211493 16.8201 0.0763814 16.6782C-0.0646043 16.5363 -0.0646043 16.3057 0.0763814 16.1698C0.217367 16.0279 0.446469 16.0279 0.58158 16.1698Z" fill="white"/>
</g>
<path id="Vector_56" d="M2.14411 7.31926C2.55289 7.31926 2.88428 6.98575 2.88428 6.57433C2.88428 6.16292 2.55289 5.8294 2.14411 5.8294C1.73532 5.8294 1.40393 6.16292 1.40393 6.57433C1.40393 6.98575 1.73532 7.31926 2.14411 7.31926Z" fill="white"/>
<path id="Vector_57" d="M2.14411 11.3337C2.55289 11.3337 2.88428 11.0001 2.88428 10.5887C2.88428 10.1773 2.55289 9.8438 2.14411 9.8438C1.73532 9.8438 1.40393 10.1773 1.40393 10.5887C1.40393 11.0001 1.73532 11.3337 2.14411 11.3337Z" fill="white"/>
<path id="Vector_58" d="M2.14411 15.3421C2.55289 15.3421 2.88428 15.0086 2.88428 14.5972C2.88428 14.1857 2.55289 13.8522 2.14411 13.8522C1.73532 13.8522 1.40393 14.1857 1.40393 14.5972C1.40393 15.0086 1.73532 15.3421 2.14411 15.3421Z" fill="white"/>
<g id="Group_28">
<path id="Vector_59" d="M51.166 4.37504C51.3834 4.37504 51.5596 4.18181 51.5596 3.94345C51.5596 3.70509 51.3834 3.51186 51.166 3.51186C50.9487 3.51186 50.7725 3.70509 50.7725 3.94345C50.7725 4.18181 50.9487 4.37504 51.166 4.37504Z" fill="white"/>
<path id="Vector_60" d="M51.166 6.69256C51.3834 6.69256 51.5596 6.49933 51.5596 6.26097C51.5596 6.02261 51.3834 5.82938 51.166 5.82938C50.9487 5.82938 50.7725 6.02261 50.7725 6.26097C50.7725 6.49933 50.9487 6.69256 51.166 6.69256Z" fill="white"/>
<path id="Vector_61" d="M51.166 9.01016C51.3834 9.01016 51.5596 8.81693 51.5596 8.57857C51.5596 8.34021 51.3834 8.14698 51.166 8.14698C50.9487 8.14698 50.7725 8.34021 50.7725 8.57857C50.7725 8.81693 50.9487 9.01016 51.166 9.01016Z" fill="white"/>
<path id="Vector_62" d="M53.04 4.37502C53.2574 4.37502 53.4336 4.18179 53.4336 3.94343C53.4336 3.70507 53.2574 3.51184 53.04 3.51184C52.8226 3.51184 52.6464 3.70507 52.6464 3.94343C52.6464 4.18179 52.8226 4.37502 53.04 4.37502Z" fill="white"/>
<path id="Vector_63" d="M53.04 6.69257C53.2574 6.69257 53.4336 6.49935 53.4336 6.26099C53.4336 6.02263 53.2574 5.8294 53.04 5.8294C52.8226 5.8294 52.6464 6.02263 52.6464 6.26099C52.6464 6.49935 52.8226 6.69257 53.04 6.69257Z" fill="white"/>
<path id="Vector_64" d="M53.04 9.01016C53.2574 9.01016 53.4336 8.81694 53.4336 8.57858C53.4336 8.34022 53.2574 8.14699 53.04 8.14699C52.8226 8.14699 52.6464 8.34022 52.6464 8.57858C52.6464 8.81694 52.8226 9.01016 53.04 9.01016Z" fill="white"/>
<path id="Vector_65" d="M54.914 4.37502C55.1313 4.37502 55.3076 4.18179 55.3076 3.94343C55.3076 3.70507 55.1313 3.51184 54.914 3.51184C54.6966 3.51184 54.5204 3.70507 54.5204 3.94343C54.5204 4.18179 54.6966 4.37502 54.914 4.37502Z" fill="white"/>
<path id="Vector_66" d="M54.914 6.69257C55.1313 6.69257 55.3076 6.49935 55.3076 6.26099C55.3076 6.02263 55.1313 5.8294 54.914 5.8294C54.6966 5.8294 54.5204 6.02263 54.5204 6.26099C54.5204 6.49935 54.6966 6.69257 54.914 6.69257Z" fill="white"/>
<path id="Vector_67" d="M54.914 9.01016C55.1313 9.01016 55.3076 8.81694 55.3076 8.57858C55.3076 8.34022 55.1313 8.14699 54.914 8.14699C54.6966 8.14699 54.5204 8.34022 54.5204 8.57858C54.5204 8.81694 54.6966 9.01016 54.914 9.01016Z" fill="white"/>
</g>
<path id="Vector_68" d="M20.4899 50.9747C20.8987 50.9747 21.2301 50.6412 21.2301 50.2297C21.2301 49.8183 20.8987 49.4848 20.4899 49.4848C20.0811 49.4848 19.7498 49.8183 19.7498 50.2297C19.7498 50.6412 20.0811 50.9747 20.4899 50.9747Z" fill="white"/>
<path id="Vector_69" d="M16.5071 50.9747C16.9159 50.9747 17.2473 50.6412 17.2473 50.2297C17.2473 49.8183 16.9159 49.4848 16.5071 49.4848C16.0983 49.4848 15.7669 49.8183 15.7669 50.2297C15.7669 50.6412 16.0983 50.9747 16.5071 50.9747Z" fill="white"/>
<path id="Vector_70" d="M24.4728 50.9747C24.8816 50.9747 25.213 50.6412 25.213 50.2297C25.213 49.8183 24.8816 49.4848 24.4728 49.4848C24.0641 49.4848 23.7327 49.8183 23.7327 50.2297C23.7327 50.6412 24.0641 50.9747 24.4728 50.9747Z" fill="white"/>
<path id="Vector_71" d="M13.4465 42.5084C13.6671 42.5084 13.846 42.3285 13.846 42.1064C13.846 41.8844 13.6671 41.7044 13.4465 41.7044C13.2259 41.7044 13.0471 41.8844 13.0471 42.1064C13.0471 42.3285 13.2259 42.5084 13.4465 42.5084Z" fill="white"/>
<path id="Vector_72" d="M15.6024 42.5084C15.823 42.5084 16.0019 42.3285 16.0019 42.1064C16.0019 41.8844 15.823 41.7044 15.6024 41.7044C15.3818 41.7044 15.2029 41.8844 15.2029 42.1064C15.2029 42.3285 15.3818 42.5084 15.6024 42.5084Z" fill="white"/>
<path id="Vector_73" d="M17.7525 42.5084C17.9731 42.5084 18.1519 42.3285 18.1519 42.1064C18.1519 41.8844 17.9731 41.7044 17.7525 41.7044C17.5319 41.7044 17.353 41.8844 17.353 42.1064C17.353 42.3285 17.5319 42.5084 17.7525 42.5084Z" fill="white"/>
<path id="Vector_74" d="M19.9084 42.5084C20.129 42.5084 20.3078 42.3285 20.3078 42.1064C20.3078 41.8844 20.129 41.7044 19.9084 41.7044C19.6878 41.7044 19.5089 41.8844 19.5089 42.1064C19.5089 42.3285 19.6878 42.5084 19.9084 42.5084Z" fill="white"/>
<path id="Vector_75" d="M13.4465 44.1461C13.6671 44.1461 13.846 43.9661 13.846 43.7441C13.846 43.5221 13.6671 43.3421 13.4465 43.3421C13.2259 43.3421 13.0471 43.5221 13.0471 43.7441C13.0471 43.9661 13.2259 44.1461 13.4465 44.1461Z" fill="white"/>
<path id="Vector_76" d="M15.6024 44.1461C15.823 44.1461 16.0019 43.9661 16.0019 43.7441C16.0019 43.5221 15.823 43.3421 15.6024 43.3421C15.3818 43.3421 15.2029 43.5221 15.2029 43.7441C15.2029 43.9661 15.3818 44.1461 15.6024 44.1461Z" fill="white"/>
<path id="Vector_77" d="M17.7525 44.1461C17.9731 44.1461 18.1519 43.9661 18.1519 43.7441C18.1519 43.5221 17.9731 43.3421 17.7525 43.3421C17.5319 43.3421 17.353 43.5221 17.353 43.7441C17.353 43.9661 17.5319 44.1461 17.7525 44.1461Z" fill="white"/>
<path id="Vector_78" d="M19.9084 44.1461C20.129 44.1461 20.3078 43.9661 20.3078 43.7441C20.3078 43.5221 20.129 43.3421 19.9084 43.3421C19.6878 43.3421 19.5089 43.5221 19.5089 43.7441C19.5089 43.9661 19.6878 44.1461 19.9084 44.1461Z" fill="white"/>
<g id="Group_29">
<path id="Vector_79" d="M54.1914 52.3167H30.212L25.2952 47.3682H9.493L7.78355 49.0887H7.71893C2.96066 49.2069 -5.06378 49.3606 -5.37512 49.0414L-7.43116 46.9721H-11.6725V46.6529H-7.30193L-5.16952 48.799C-4.5997 48.9941 2.76093 48.8877 7.64844 48.7694L9.36376 47.0431H25.4244L30.3413 51.9915H54.1914V52.3108V52.3167Z" fill="white"/>
<path id="Vector_80" d="M54.1738 52.5177C54.3735 52.5177 54.5321 52.3581 54.5321 52.1571C54.5321 51.9561 54.3735 51.7964 54.1738 51.7964C53.974 51.7964 53.8154 51.9561 53.8154 52.1571C53.8154 52.3581 53.974 52.5177 54.1738 52.5177Z" fill="white"/>
</g>
<g id="Group_30">
<path id="Vector_81" d="M38.9121 61.8353H19.7792L13.4524 55.4679H-5.19881L-11.9191 48.6985L-11.6959 48.4738L-5.0637 55.1486H13.5875L19.9143 61.516H38.7829L42.5601 57.7145H66.7568L75.3393 49.0769H106.944V49.3961H75.4685L66.8919 58.0338H42.6893L38.9121 61.8353Z" fill="white"/>
</g>
<g id="Group_31">
<path id="Vector_82" d="M36.9559 59.9198H21.048L14.5861 53.4164H-4.02985V53.0912H14.7213L21.1831 59.6005H36.8208L41.3264 55.0659H63.89V55.3851H41.4557L36.9559 59.9198Z" fill="white"/>
</g>
</g>
</g>
<path id="Vector_83" d="M21.6237 38.3285C31.4703 38.3285 39.4525 30.295 39.4525 20.3851C39.4525 10.4752 31.4703 2.44171 21.6237 2.44171C11.7771 2.44171 3.79486 10.4752 3.79486 20.3851C3.79486 30.295 11.7771 38.3285 21.6237 38.3285Z" fill="url(#paint1_linear_4833_21889)"/>
<path id="Vector_84" d="M21.6237 37.4476C30.9869 37.4476 38.5772 29.8085 38.5772 20.3851C38.5772 10.9618 30.9869 3.32264 21.6237 3.32264C12.2605 3.32264 4.67017 10.9618 4.67017 20.3851C4.67017 29.8085 12.2605 37.4476 21.6237 37.4476Z" fill="url(#paint2_linear_4833_21889)"/>
<path id="Vector_85" d="M21.1948 31.636C27.6121 31.636 32.8144 26.4003 32.8144 19.9417C32.8144 13.4831 27.6121 8.24745 21.1948 8.24745C14.7775 8.24745 9.57526 13.4831 9.57526 19.9417C9.57526 26.4003 14.7775 31.636 21.1948 31.636Z" fill="url(#paint3_linear_4833_21889)"/>
<path id="Vector_86" d="M21.1948 32.9603C28.3389 32.9603 34.1303 27.1317 34.1303 19.9417C34.1303 12.7518 28.3389 6.92314 21.1948 6.92314C14.0508 6.92314 8.2594 12.7518 8.2594 19.9417C8.2594 27.1317 14.0508 32.9603 21.1948 32.9603Z" fill="url(#paint4_linear_4833_21889)"/>
<path id="Vector_87" d="M21.1948 31.429C27.6121 31.429 32.8144 26.1933 32.8144 19.7348C32.8144 13.2762 27.6121 8.04052 21.1948 8.04052C14.7775 8.04052 9.57526 13.2762 9.57526 19.7348C9.57526 26.1933 14.7775 31.429 21.1948 31.429Z" fill="url(#paint5_linear_4833_21889)"/>
<g id="Vector_88" filter="url(#filter0_d_4833_21889)">
<path d="M18.0696 13.2137L27.7976 19.5515C28.2911 19.8767 28.2911 20.6039 27.7976 20.9291L18.0696 27.2669C17.5292 27.6216 16.8125 27.2255 16.8125 26.5811V13.9113C16.8125 13.261 17.5292 12.8708 18.0696 13.2255V13.2137Z" fill="white"/>
</g>
<g id="Group_32">
<g id="Group_33">
<path id="Vector_89" d="M43.1358 35.9341L43.2827 36.1469C43.8584 36.9806 43.7115 38.092 42.9655 38.6123L36.9618 42.9282C36.2158 43.4485 35.1349 43.1942 34.5592 42.3547L34.4124 42.1419C33.8367 41.3083 33.9835 40.1968 34.7296 39.6765L40.7332 35.3606C41.4793 34.8404 42.5602 35.0946 43.1358 35.9341Z" fill="white"/>
<path id="Vector_90" d="M36.0806 43.549C35.3992 43.549 34.7001 43.1942 34.2595 42.5557L34.1127 42.3429C33.4254 41.3437 33.6075 40.0135 34.5239 39.3809L40.5216 35.0709C41.4381 34.4324 42.7422 34.728 43.4236 35.7272L43.5705 35.94C44.2578 36.9392 44.0757 38.2694 43.1593 38.902L37.1615 43.212C36.8325 43.4366 36.4566 43.549 36.0806 43.549ZM41.6084 35.4493C41.3676 35.4493 41.1385 35.5143 40.9329 35.6562L34.9351 39.9662C34.3418 40.3801 34.2419 41.261 34.7001 41.935L34.847 42.1478C35.3111 42.8218 36.1687 43.0346 36.7503 42.6267L42.748 38.3167C43.3414 37.9029 43.4412 37.0219 42.983 36.348L42.8362 36.1351C42.5307 35.6917 42.0607 35.4493 41.6025 35.4493H41.6084Z" fill="black"/>
</g>
<g id="Group_34">
<path id="Vector_91" d="M30.359 28.5498L30.2591 28.7213C29.8655 29.3953 28.9961 29.6259 28.3264 29.2357C27.833 28.946 27.3571 28.6267 26.8872 28.2897C26.4172 27.9527 25.9649 27.663 25.542 27.3083C25.0837 26.9299 24.8311 26.3387 24.8605 25.7416C24.8899 25.1385 25.3305 24.5591 25.9355 24.7838C26.4114 24.9612 26.9812 25.2095 27.4335 25.4341C28.2266 25.8303 29.0901 26.1495 29.8538 26.5988C30.5234 26.9949 30.7525 27.8699 30.3648 28.5439L30.359 28.5498Z" fill="white"/>
<path id="Vector_92" d="M29.0313 29.7855C28.7258 29.7855 28.4204 29.7086 28.1443 29.5431C27.6978 29.2829 27.2337 28.9755 26.6815 28.5853L26.3173 28.3311C25.9825 28.1005 25.6359 27.8581 25.3128 27.592C24.7724 27.1486 24.4669 26.451 24.5021 25.7297C24.5256 25.239 24.7606 24.7838 25.1072 24.5532C25.3892 24.364 25.724 24.3285 26.053 24.4527C26.5288 24.6301 27.1045 24.8784 27.5803 25.1208C27.874 25.2686 28.1795 25.4045 28.485 25.5405C28.9961 25.7711 29.5306 26.0076 30.0241 26.2973C30.4294 26.5338 30.7231 26.924 30.8406 27.3851C30.964 27.8463 30.8994 28.3252 30.6585 28.739L30.5587 28.9105C30.2297 29.478 29.6364 29.7973 29.0254 29.7973L29.0313 29.7855ZM25.6711 25.0971C25.6124 25.0971 25.5595 25.1149 25.5008 25.1503C25.3422 25.2567 25.2247 25.5051 25.2129 25.7652C25.1894 26.2618 25.395 26.7348 25.7651 27.0422C26.0647 27.2905 26.3996 27.5211 26.7227 27.7458L27.0928 28.0059C27.6273 28.3843 28.0738 28.6799 28.5026 28.9341C29.0078 29.2297 29.654 29.0583 29.9477 28.5498L30.0476 28.3784C30.1886 28.136 30.2297 27.8463 30.1533 27.5743C30.0828 27.2964 29.9066 27.0659 29.6657 26.924C29.2017 26.652 28.6906 26.4214 28.1971 26.2027C27.8858 26.0608 27.5686 25.9248 27.269 25.7711C26.8167 25.5464 26.2527 25.304 25.8063 25.1326C25.7593 25.1148 25.7123 25.103 25.6653 25.103L25.6711 25.0971Z" fill="black"/>
</g>
<g id="Group_35">
<path id="Vector_93" d="M54.3324 53.4814C52.8638 54.4096 51.589 53.6765 49.815 53.2686C47.9645 52.8429 45.6147 51.8615 44.199 50.6436C43.171 49.7568 43.5763 48.3437 43.4941 47.1318L43.2415 43.3953C43.1358 41.8108 43.0241 40.2263 42.9184 38.636L44.575 35.2838C44.9392 34.5448 45.7087 34.4206 46.2903 35.0059L58.1918 47.1258C58.8087 47.7643 55.6835 52.1748 55.2546 52.6655C54.9609 53.0025 54.6555 53.2686 54.3324 53.4755V53.4814Z" fill="white"/>
<path id="Vector_94" d="M52.811 54.2914C52.1413 54.2914 51.4775 54.1022 50.796 53.9071C50.4612 53.8125 50.1087 53.712 49.7386 53.6233C48.0821 53.239 45.5796 52.3049 43.97 50.9155C43.0712 50.141 43.1064 49.0414 43.1417 48.0659C43.1534 47.7466 43.1652 47.4392 43.1417 47.1495L42.5601 38.5591L44.2578 35.1241C44.481 34.6689 44.8629 34.3615 45.2976 34.2964C45.7323 34.2255 46.1846 34.3969 46.543 34.7576L58.4445 46.8775C59.4197 47.8826 55.5661 52.8606 55.5249 52.9079C55.2195 53.2627 54.8846 53.5583 54.5204 53.7829C53.933 54.1554 53.369 54.2855 52.811 54.2855V54.2914ZM43.2827 38.7069L43.8525 47.1022C43.876 47.4273 43.8642 47.7643 43.8525 48.0895C43.8231 48.9763 43.7937 49.8218 44.4341 50.3657C45.8498 51.5836 48.1996 52.5236 49.8973 52.9138C50.285 53.0025 50.6433 53.1089 50.9899 53.2094C52.2294 53.5642 53.1223 53.8243 54.1386 53.174C54.4382 52.9848 54.726 52.7365 54.9786 52.435C55.6718 51.625 58.0744 47.9772 57.9041 47.3446C57.8688 47.3209 57.0817 46.5169 46.026 35.2601C45.8322 35.0591 45.6089 34.9645 45.4033 35C45.1977 35.0355 45.0156 35.1892 44.8864 35.4434L43.2768 38.7069H43.2827Z" fill="black"/>
</g>
<g id="Group_36">
<path id="Vector_95" d="M30.9775 28.7525L30.8798 28.9211C30.4858 29.6008 30.7139 30.4732 31.3892 30.8698L34.1089 32.4667C34.7842 32.8632 35.6511 32.6337 36.0451 31.954L36.1428 31.7855C36.5368 31.1058 36.3088 30.2333 35.6334 29.8368L32.9137 28.2399C32.2384 27.8433 31.3715 28.0728 30.9775 28.7525Z" fill="white"/>
<path id="Vector_96" d="M34.8234 33.0253C34.5121 33.0253 34.2125 32.9426 33.9364 32.7829L31.2107 31.1807C30.3648 30.6841 30.0828 29.5904 30.5762 28.7449L30.6761 28.5735C31.1696 27.7221 32.2563 27.4383 33.0964 27.935L35.8221 29.5372C36.668 30.0338 36.95 31.1275 36.4565 31.973L36.3567 32.1444C36.1217 32.5524 35.734 32.848 35.2758 32.9662C35.123 33.0076 34.9703 33.0253 34.8176 33.0253H34.8234ZM32.2093 28.4079C31.8451 28.4079 31.4927 28.5971 31.2929 28.9341L31.1931 29.1056C30.8993 29.614 31.0697 30.2644 31.5749 30.56L34.3006 32.1622C34.5415 32.3041 34.8293 32.3454 35.0995 32.2686C35.3756 32.1976 35.6047 32.0203 35.7457 31.7779L35.8456 31.6064C36.1393 31.098 35.9689 30.4476 35.4637 30.152L32.7439 28.5498C32.5794 28.4493 32.3914 28.402 32.2152 28.402L32.2093 28.4079Z" fill="black"/>
</g>
<g id="Group_37">
<path id="Vector_97" d="M46.6194 37.5245L46.4901 37.7492C45.9849 38.6242 44.904 38.9552 44.0934 38.4764L37.467 34.7162C36.6564 34.2432 36.4096 33.1318 36.9148 32.2568L37.0441 32.0321C37.5493 31.1571 38.6302 30.826 39.4408 31.3049L46.0672 35.065C46.8778 35.538 47.1246 36.6495 46.6194 37.5245Z" fill="white"/>
<path id="Vector_98" d="M44.904 39.0498C44.5633 39.0498 44.2226 38.9612 43.9112 38.7838L37.2908 35.0296C36.3039 34.4502 35.9984 33.1258 36.6093 32.0794L36.7386 31.8547C37.3495 30.8024 38.6419 30.4181 39.6229 30.9975L46.2434 34.7517C47.2303 35.3311 47.5357 36.6554 46.9248 37.7019L46.7956 37.9265C46.3785 38.6478 45.6383 39.0498 44.904 39.0498ZM38.6301 31.4468C38.1367 31.4468 37.6374 31.7247 37.3554 32.2154L37.2262 32.44C36.8149 33.1495 37.0029 34.0304 37.6491 34.4088L44.2696 38.163C44.9157 38.5414 45.7734 38.2753 46.1846 37.5659L46.3139 37.3412C46.7251 36.6318 46.5371 35.7509 45.8909 35.3725L39.2704 31.6182C39.0707 31.5 38.8534 31.4468 38.6301 31.4468Z" fill="black"/>
</g>
<g id="Group_38">
<path id="Vector_99" d="M37.5181 43.5017C36.4359 43.0957 35.2315 43.6496 34.8282 44.7389C34.4248 45.8281 34.9752 47.0402 36.0575 47.4461L41.7271 49.5727C42.8094 49.9787 44.0137 49.4248 44.4171 48.3355C44.8204 47.2463 44.2701 46.0342 43.1878 45.6283L37.5181 43.5017Z" fill="white"/>
<path id="Vector_100" d="M42.4544 50.0642C42.1724 50.0642 41.8846 50.0169 41.6026 49.9105L35.9279 47.7821C35.317 47.5515 34.8294 47.0963 34.5592 46.4991C34.289 45.902 34.2596 45.228 34.4887 44.6191C34.7178 44.0042 35.1701 43.5135 35.7635 43.2415C36.3626 42.9696 37.0265 42.94 37.6315 43.1706L43.3062 45.299C44.5692 45.7719 45.2154 47.1968 44.7454 48.4679C44.3812 49.4552 43.4413 50.0701 42.4485 50.0701L42.4544 50.0642ZM36.7915 43.7263C36.5448 43.7263 36.298 43.7796 36.0689 43.886C35.646 44.0811 35.3229 44.4299 35.1643 44.8615C35.0057 45.299 35.0233 45.7719 35.2113 46.1917C35.4051 46.6174 35.7517 46.9426 36.1805 47.1022L41.8552 49.2306C42.2899 49.3902 42.7599 49.3725 43.177 49.1833C43.5999 48.9882 43.923 48.6393 44.0816 48.2078C44.4165 47.3091 43.9583 46.2981 43.0595 45.9611L37.3848 43.8328C37.1909 43.7618 36.9853 43.7263 36.7856 43.7263H36.7915Z" fill="black"/>
</g>
<g id="Group_39">
<path id="Vector_101" d="M34.9175 44.9088L34.7883 45.098C34.289 45.837 33.3197 46.0676 32.6383 45.6005C32.1389 45.2576 31.6631 44.8437 31.1932 44.4594C30.2885 43.7145 29.002 42.8809 29.9302 41.7931C30.688 40.9654 31.8746 41.1486 32.6676 41.5861C33.5664 42.0887 33.7955 42.2542 34.5886 42.7094C35.27 43.1765 35.4169 44.1638 34.9117 44.9029L34.9175 44.9088Z" fill="white"/>
<path id="Vector_102" d="M33.4312 46.1976C33.0729 46.1976 32.7322 46.0912 32.4385 45.8902C32.0155 45.6005 31.6102 45.2635 31.2166 44.9324L30.6996 44.5068C30.0593 43.9924 29.3309 43.413 29.2604 42.6562C29.2252 42.2779 29.3603 41.9054 29.6657 41.5507C30.5234 40.6047 31.8804 40.7289 32.8438 41.2669C33.3842 41.5684 33.6838 41.7517 34.0069 41.9468C34.2243 42.0769 34.4475 42.2128 34.7647 42.3961C35.1994 42.6917 35.4697 43.1351 35.546 43.6495C35.6224 44.152 35.499 44.6723 35.2053 45.1039L35.0761 45.2931C34.7824 45.7247 34.3476 46.0321 33.8542 46.1444C33.7073 46.1799 33.5664 46.1917 33.4254 46.1917L33.4312 46.1976ZM31.2988 41.5743C30.9052 41.5743 30.5117 41.6926 30.2003 42.0296C30.0358 42.2247 29.9595 42.4139 29.9771 42.5912C30.0182 43.0405 30.6174 43.5253 31.152 43.9451L31.6807 44.3767C32.0625 44.69 32.4502 45.0211 32.8497 45.2931C33.0964 45.4645 33.4019 45.5118 33.7073 45.4409C34.0246 45.364 34.3065 45.1689 34.5004 44.8851L34.6296 44.6959C34.8235 44.4122 34.8998 44.0752 34.8528 43.75C34.8059 43.4367 34.6472 43.1706 34.4005 42.9992C34.1009 42.8277 33.8718 42.6858 33.6545 42.5557C33.3373 42.3666 33.0435 42.1892 32.509 41.8936C32.2211 41.734 31.7688 41.5684 31.3047 41.5684L31.2988 41.5743Z" fill="black"/>
</g>
<g id="Group_40">
<path id="Vector_103" d="M30.5412 30.1047C31.2744 30.1047 31.8688 29.5065 31.8688 28.7686C31.8688 28.0306 31.2744 27.4324 30.5412 27.4324C29.808 27.4324 29.2136 28.0306 29.2136 28.7686C29.2136 29.5065 29.808 30.1047 30.5412 30.1047Z" fill="#00FFFF"/>
<path id="Vector_104" d="M30.5411 30.3353C30.2885 30.3353 30.0359 30.2762 29.801 30.1461C29.049 29.7323 28.7729 28.7804 29.1841 28.0236C29.5953 27.2669 30.5411 26.989 31.2931 27.4029C31.6573 27.6039 31.9216 27.935 32.0391 28.337C32.1566 28.739 32.1096 29.1588 31.9099 29.5253C31.6279 30.0456 31.0933 30.3412 30.547 30.3412L30.5411 30.3353ZM30.5411 27.6571C30.1475 27.6571 29.7716 27.864 29.5719 28.2365C29.2781 28.7745 29.4779 29.4544 30.0124 29.7441C30.547 30.0397 31.2167 29.8387 31.5104 29.3007C31.8041 28.7627 31.6044 28.0828 31.0698 27.7931C30.8995 27.6985 30.7232 27.6571 30.5411 27.6571Z" fill="black"/>
</g>
<g id="Group_41">
<path id="Vector_105" d="M30.5411 29.3064C30.8363 29.3064 31.0757 29.0655 31.0757 28.7684C31.0757 28.4712 30.8363 28.2304 30.5411 28.2304C30.2459 28.2304 30.0065 28.4712 30.0065 28.7684C30.0065 29.0655 30.2459 29.3064 30.5411 29.3064Z" fill="white"/>
<path id="Vector_106" d="M30.5411 29.342C30.4471 29.342 30.3531 29.3184 30.2708 29.2711C30.1357 29.2002 30.0417 29.076 30.0006 28.9282C29.9595 28.7804 29.9771 28.6267 30.0476 28.4907C30.1181 28.3547 30.2415 28.2601 30.3883 28.2128C30.5352 28.1714 30.6879 28.1892 30.823 28.2601C31.0991 28.4138 31.199 28.7567 31.0521 29.0346C30.9816 29.1706 30.8583 29.2652 30.7114 29.3066C30.6585 29.3243 30.6057 29.3302 30.5528 29.3302L30.5411 29.342ZM30.5411 28.2719C30.4941 28.2719 30.4471 28.2779 30.4001 28.2897C30.2708 28.3252 30.171 28.4138 30.1063 28.5262C29.9771 28.7686 30.0652 29.0701 30.3002 29.2002C30.4177 29.2652 30.5469 29.277 30.6762 29.2415C30.8054 29.2061 30.9053 29.1174 30.9699 29.0051C31.0991 28.7627 31.011 28.4611 30.776 28.3311C30.6997 28.2897 30.6233 28.2719 30.5411 28.2719Z" fill="black"/>
</g>
<g id="Group_42">
<path id="Vector_107" d="M36.6388 33.4628C37.372 33.4628 37.9664 32.8646 37.9664 32.1267C37.9664 31.3887 37.372 30.7905 36.6388 30.7905C35.9056 30.7905 35.3112 31.3887 35.3112 32.1267C35.3112 32.8646 35.9056 33.4628 36.6388 33.4628Z" fill="#00FFFF"/>
<path id="Vector_108" d="M36.6388 33.6875C36.3862 33.6875 36.1336 33.6284 35.8986 33.4983C35.1467 33.0845 34.8706 32.1326 35.2818 31.3758C35.693 30.6191 36.6388 30.3412 37.3907 30.7551C38.1426 31.1689 38.4187 32.1208 38.0075 32.8775C37.7255 33.3978 37.191 33.6934 36.6388 33.6934V33.6875ZM36.6447 31.0152C36.2511 31.0152 35.8751 31.2221 35.6695 31.5946C35.3758 32.1326 35.5755 32.8125 36.1101 33.1022C36.6447 33.3919 37.3202 33.1968 37.6081 32.6588C37.9018 32.1208 37.7021 31.4409 37.1675 31.1512C36.9971 31.0566 36.8209 31.0152 36.6388 31.0152H36.6447Z" fill="black"/>
</g>
<g id="Group_43">
<path id="Vector_109" d="M36.6388 32.6645C36.934 32.6645 37.1733 32.4236 37.1733 32.1265C37.1733 31.8294 36.934 31.5885 36.6388 31.5885C36.3435 31.5885 36.1042 31.8294 36.1042 32.1265C36.1042 32.4236 36.3435 32.6645 36.6388 32.6645Z" fill="white"/>
<path id="Vector_110" d="M36.6388 32.6942C36.5448 32.6942 36.4508 32.6706 36.3686 32.6233C36.0925 32.4696 35.9926 32.1208 36.1395 31.8488C36.2922 31.5709 36.6388 31.4704 36.909 31.6182C37.1851 31.7719 37.285 32.1208 37.1381 32.3927C37.0324 32.5819 36.8385 32.6883 36.6388 32.6883V32.6942ZM36.6446 31.63C36.4684 31.63 36.2981 31.7246 36.2099 31.8902C36.0807 32.1326 36.1688 32.4341 36.4038 32.5642C36.6446 32.6942 36.9442 32.6055 37.0735 32.3691C37.2027 32.1267 37.1146 31.8251 36.8796 31.6951C36.8033 31.6537 36.721 31.636 36.6446 31.636V31.63Z" fill="black"/>
</g>
<g id="Group_44">
<path id="Vector_111" d="M34.612 45.9966C35.3453 45.9966 35.9397 45.3984 35.9397 44.6605C35.9397 43.9225 35.3453 43.3243 34.612 43.3243C33.8788 43.3243 33.2844 43.9225 33.2844 44.6605C33.2844 45.3984 33.8788 45.9966 34.612 45.9966Z" fill="#00FFFF"/>
<path id="Vector_112" d="M34.6062 46.2213C34.3536 46.2213 34.101 46.1622 33.866 46.0321C33.5018 45.8311 33.2374 45.5 33.1199 45.098C33.0025 44.6959 33.0494 44.2762 33.2492 43.9096C33.4489 43.5431 33.7779 43.277 34.1773 43.1588C34.5768 43.0405 34.9939 43.0878 35.3581 43.2888C36.11 43.7027 36.3861 44.6545 35.9749 45.4113C35.6929 45.9316 35.1584 46.2272 34.612 46.2272L34.6062 46.2213ZM34.612 43.5431C34.5063 43.5431 34.4006 43.5608 34.3007 43.5904C34.0187 43.6731 33.7838 43.8623 33.6428 44.1225C33.5018 44.3826 33.4665 44.6841 33.5546 44.9679C33.6369 45.2517 33.8249 45.4882 34.0833 45.6301C34.6179 45.9257 35.2935 45.7247 35.5813 45.1866C35.875 44.6486 35.6753 43.9687 35.1407 43.679C34.9763 43.5904 34.7941 43.5431 34.612 43.5431Z" fill="black"/>
</g>
<g id="Group_45">
<path id="Vector_113" d="M34.6121 45.1983C34.9074 45.1983 35.1467 44.9575 35.1467 44.6603C35.1467 44.3632 34.9074 44.1223 34.6121 44.1223C34.3169 44.1223 34.0776 44.3632 34.0776 44.6603C34.0776 44.9575 34.3169 45.1983 34.6121 45.1983Z" fill="white"/>
<path id="Vector_114" d="M34.6121 45.234C34.5181 45.234 34.4241 45.2103 34.3419 45.163C34.0658 45.0093 33.9659 44.6664 34.1128 44.3885C34.1833 44.2525 34.3066 44.1579 34.4535 44.1166C34.6004 44.0693 34.7531 44.087 34.8882 44.1638C35.0233 44.2348 35.1173 44.3589 35.1584 44.5068C35.1995 44.6546 35.1819 44.8083 35.1114 44.9443C35.0409 45.0802 34.9176 45.1748 34.7707 45.2221C34.7178 45.2399 34.665 45.2458 34.6121 45.2458V45.234ZM34.6121 44.1579C34.5651 44.1579 34.5181 44.1638 34.4711 44.1757C34.3478 44.2111 34.242 44.2998 34.1774 44.4122C34.0482 44.6546 34.1363 44.9561 34.3713 45.0861C34.4887 45.1512 34.618 45.163 34.7472 45.1275C34.8765 45.0921 34.9763 45.0034 35.0409 44.891C35.1702 44.6486 35.0821 44.3471 34.8471 44.2171C34.7707 44.1757 34.6943 44.1579 34.6121 44.1579Z" fill="black"/>
</g>
<g id="Group_46">
<path id="Vector_115" d="M43.2063 50.5076C44.6467 50.5076 45.8145 49.3323 45.8145 47.8826C45.8145 46.4328 44.6467 45.2576 43.2063 45.2576C41.7658 45.2576 40.598 46.4328 40.598 47.8826C40.598 49.3323 41.7658 50.5076 43.2063 50.5076Z" fill="#00FFFF"/>
<path id="Vector_116" d="M43.2063 50.7323C42.7363 50.7323 42.2722 50.614 41.8493 50.3835C41.1855 50.0169 40.7038 49.4139 40.4864 48.6867C40.2691 47.9595 40.3572 47.185 40.7214 46.5169C41.4675 45.1394 43.1945 44.625 44.5633 45.3818C45.932 46.1385 46.4372 47.8708 45.6912 49.2483C45.3269 49.9164 44.7278 50.4012 44.0052 50.6199C43.7409 50.6968 43.4706 50.7382 43.2063 50.7382V50.7323ZM43.2122 45.4823C42.3662 45.4823 41.5497 45.9316 41.115 46.7297C40.8095 47.2914 40.739 47.9417 40.9211 48.5566C41.1032 49.1715 41.5086 49.6799 42.0666 49.9873C42.6247 50.2948 43.2709 50.3657 43.8818 50.1824C44.4928 49.9992 44.998 49.5912 45.3034 49.0296C45.932 47.8708 45.509 46.4046 44.3518 45.772C43.9876 45.571 43.5999 45.4764 43.2122 45.4764V45.4823Z" fill="black"/>
</g>
<g id="Group_47">
<path id="Vector_117" d="M43.2065 49.1951C43.9268 49.1951 44.5106 48.6075 44.5106 47.8826C44.5106 47.1577 43.9268 46.5701 43.2065 46.5701C42.4863 46.5701 41.9024 47.1577 41.9024 47.8826C41.9024 48.6075 42.4863 49.1951 43.2065 49.1951Z" fill="white"/>
<path id="Vector_118" d="M43.2063 49.3074C42.9772 49.3074 42.7423 49.2542 42.5308 49.136C41.8435 48.7576 41.5909 47.8885 41.9668 47.2027C42.3428 46.5169 43.2005 46.2568 43.8878 46.6351C44.5751 47.0135 44.8277 47.8826 44.4517 48.5684C44.1932 49.0414 43.7057 49.3134 43.2063 49.3134V49.3074ZM43.2122 46.6824C42.7893 46.6824 42.378 46.9071 42.1607 47.3091C41.8435 47.8885 42.0608 48.6216 42.6365 48.9409C43.2122 49.2601 43.9406 49.0414 44.252 48.462C44.5692 47.8826 44.3518 47.1495 43.7762 46.8302C43.594 46.7297 43.4002 46.6824 43.2063 46.6824H43.2122Z" fill="black"/>
</g>
<g id="Group_48">
<path id="Vector_119" d="M44.7395 39.5405C46.18 39.5405 47.3477 38.3653 47.3477 36.9155C47.3477 35.4658 46.18 34.2905 44.7395 34.2905C43.299 34.2905 42.1312 35.4658 42.1312 36.9155C42.1312 38.3653 43.299 39.5405 44.7395 39.5405Z" fill="#00FFFF"/>
<path id="Vector_120" d="M44.7395 39.7652C44.2696 39.7652 43.8055 39.647 43.3825 39.4164C42.0138 38.6655 41.5027 36.9274 42.2546 35.5498C43.0066 34.1723 44.7278 33.6638 46.0965 34.4147C47.4652 35.1714 47.9704 36.9037 47.2244 38.2812C46.8602 38.9493 46.261 39.4341 45.5384 39.6529C45.2741 39.7297 45.0039 39.7711 44.7395 39.7711V39.7652ZM44.7454 34.5152C43.8995 34.5152 43.0829 34.9645 42.6482 35.7627C42.0197 36.9214 42.4426 38.3877 43.5999 39.0203C44.1579 39.3277 44.8041 39.3986 45.4151 39.2154C46.026 39.0321 46.5312 38.6241 46.8367 38.0625C47.1421 37.5008 47.2126 36.8505 47.0305 36.2356C46.8543 35.6208 46.4431 35.1123 45.885 34.8049C45.5208 34.6039 45.1331 34.5093 44.7454 34.5093V34.5152Z" fill="black"/>
</g>
<g id="Group_49">
<path id="Vector_121" d="M44.7398 38.2281C45.46 38.2281 46.0439 37.6404 46.0439 36.9156C46.0439 36.1907 45.46 35.6031 44.7398 35.6031C44.0195 35.6031 43.4357 36.1907 43.4357 36.9156C43.4357 37.6404 44.0195 38.2281 44.7398 38.2281Z" fill="white"/>
<path id="Vector_122" d="M44.7395 38.3404C44.5104 38.3404 44.2755 38.2872 44.064 38.1689C43.3767 37.7905 43.1241 36.9214 43.5 36.2356C43.876 35.5498 44.7395 35.2897 45.421 35.6681C46.1083 36.0464 46.3609 36.9155 45.9849 37.6013C45.7264 38.0743 45.2389 38.3404 44.7395 38.3404ZM44.7454 35.7154C44.3225 35.7154 43.9112 35.94 43.6939 36.3421C43.3767 36.9214 43.594 37.6546 44.1697 37.9738C44.7454 38.2931 45.4738 38.0743 45.7911 37.4949C46.1083 36.9155 45.8909 36.1824 45.3152 35.8691C45.1331 35.7686 44.9393 35.7213 44.7454 35.7213V35.7154Z" fill="black"/>
</g>
<g id="Group_50">
<path id="Vector_123" d="M59.1729 51.4299C60.1011 50.4544 60.1833 48.7812 59.3609 47.7171L57.9687 45.9139C57.1462 44.8497 55.9361 44.9443 55.2841 46.1267L51.9709 52.1453C51.3188 53.3277 51.6361 54.7407 52.6699 55.2905C53.7038 55.8404 55.3134 55.4916 56.2416 54.516L59.1729 51.4358V51.4299Z" fill="white"/>
<path id="Vector_124" d="M53.7978 55.9054C53.3337 55.9054 52.8872 55.8108 52.5054 55.6098C51.965 55.326 51.5714 54.8294 51.3834 54.2086C51.1719 53.4873 51.2718 52.6715 51.6595 51.9679L54.9727 45.9493C55.3486 45.2694 55.9008 44.8674 56.5352 44.8201C57.1638 44.7728 57.7747 45.0802 58.2506 45.6951L59.6428 47.4983C60.571 48.7044 60.477 50.5786 59.4313 51.6782L56.5 54.7585C55.8009 55.4916 54.7612 55.9054 53.7978 55.9054ZM56.6645 45.5355C56.6645 45.5355 56.6175 45.5355 56.594 45.5355C56.2122 45.565 55.8597 45.837 55.6012 46.2982L52.2881 52.3167C51.9943 52.8488 51.918 53.4637 52.0766 54.0017C52.2058 54.4333 52.476 54.7762 52.8461 54.9713C53.739 55.4443 55.1783 55.1191 55.9948 54.2618L58.9261 51.1816C59.725 50.3421 59.8014 48.8581 59.0906 47.9417L57.6984 46.1385C57.3988 45.7483 57.0346 45.5355 56.6762 45.5355H56.6645Z" fill="black"/>
</g>
</g>
<g id="Clip path group_2">
<mask id="mask1_4833_21889" style="mask-type:luminance" maskUnits="userSpaceOnUse" x="16" y="13" width="13" height="15">
<g id="clippath-1">
<path id="Vector_125" d="M18.0696 13.2137L27.7976 19.5515C28.2911 19.8767 28.2911 20.6039 27.7976 20.9291L18.0696 27.2669C17.5292 27.6216 16.8125 27.2255 16.8125 26.5811V13.9113C16.8125 13.261 17.5292 12.8708 18.0696 13.2255V13.2137Z" fill="white"/>
</g>
</mask>
<g mask="url(#mask1_4833_21889)">
<g id="Group_51">
<path id="Vector_126" d="M15.7222 11.5222L14.2094 13.8819L28.7365 23.315L30.2493 20.9553L15.7222 11.5222Z" fill="url(#paint6_linear_4833_21889)"/>
</g>
</g>
</g>
</g>
</g>
</g>
</g>
<defs>
<filter id="filter0_d_4833_21889" x="15.8125" y="12.0914" width="13.3552" height="16.3088" filterUnits="userSpaceOnUse" color-interpolation-filters="sRGB">
<feFlood flood-opacity="0" result="BackgroundImageFix"/>
<feColorMatrix in="SourceAlpha" type="matrix" values="0 0 0 0 0 0 0 0 0 0 0 0 0 0 0 0 0 0 127 0" result="hardAlpha"/>
<feOffset/>
<feGaussianBlur stdDeviation="0.5"/>
<feColorMatrix type="matrix" values="0 0 0 0 0 0 0 0 0 0 0 0 0 0 0 0 0 0 0.75 0"/>
<feBlend mode="normal" in2="BackgroundImageFix" result="effect1_dropShadow_4833_21889"/>
<feBlend mode="normal" in="SourceGraphic" in2="effect1_dropShadow_4833_21889" result="shape"/>
</filter>
<linearGradient id="paint0_linear_4833_21889" x1="26.3878" y1="65.1993" x2="26.3878" y2="-9.19932" gradientUnits="userSpaceOnUse">
<stop offset="0.2" stop-color="#00FFFF"/>
<stop offset="0.7" stop-color="#FFFF00"/>
</linearGradient>
<linearGradient id="paint1_linear_4833_21889" x1="21.6237" y1="38.3285" x2="21.6237" y2="2.44171" gradientUnits="userSpaceOnUse">
<stop stop-color="#00FFFF"/>
<stop offset="1" stop-color="#6C00AA"/>
</linearGradient>
<linearGradient id="paint2_linear_4833_21889" x1="21.6237" y1="3.32264" x2="21.6237" y2="37.4476" gradientUnits="userSpaceOnUse">
<stop stop-color="#00FFFF"/>
<stop offset="1" stop-color="#6C00AA"/>
</linearGradient>
<linearGradient id="paint3_linear_4833_21889" x1="21.1948" y1="31.636" x2="21.1948" y2="8.24745" gradientUnits="userSpaceOnUse">
<stop stop-color="#FF8DA4"/>
<stop offset="1" stop-color="#AA0047"/>
</linearGradient>
<linearGradient id="paint4_linear_4833_21889" x1="21.1948" y1="6.92314" x2="21.1948" y2="32.9603" gradientUnits="userSpaceOnUse">
<stop stop-color="#00FFFF"/>
<stop offset="1" stop-color="#6C00AA"/>
</linearGradient>
<linearGradient id="paint5_linear_4833_21889" x1="21.1948" y1="31.429" x2="21.1948" y2="8.04052" gradientUnits="userSpaceOnUse">
<stop stop-color="#00FFFF"/>
<stop offset="1" stop-color="#6C00AA"/>
</linearGradient>
<linearGradient id="paint6_linear_4833_21889" x1="21.241" y1="18.9548" x2="22.7756" y2="16.5915" gradientUnits="userSpaceOnUse">
<stop stop-color="white" stop-opacity="0"/>
<stop offset="1" stop-color="#727171"/>
</linearGradient>
</defs>
</svg>
