<svg width="208" height="60" viewBox="0 0 208 60" fill="none" xmlns="http://www.w3.org/2000/svg">
<g id="&#232;&#179;&#135;&#231;&#148;&#162; 1 3" clip-path="url(#clip0_4551_115311)">
<g id="&#229;&#156;&#150;&#229;&#177;&#164; 2">
<g id="Group">
<path id="Vector" d="M87.8957 41.4694C88.0729 41.4694 88.2195 41.4387 88.3356 41.371C88.4517 41.3034 88.5739 41.1066 88.6289 40.6762C88.6838 40.2458 88.7144 39.3235 88.7144 38.1061C89.3314 38.7025 90.6022 39.4281 91.4575 39.7539C91.372 41.0083 91.2498 42.3241 91.0421 42.8898C90.8038 43.5169 90.3945 43.8797 89.8629 44.1748C89.4231 44.4085 88.6838 44.47 88.1829 44.47H86.4111C85.7025 44.47 84.8166 44.2363 84.2851 43.6768C83.7536 43.1173 83.5153 42.4225 83.5153 40.4118V35.9602H81.8047C81.4198 40.4118 80.1246 43.1173 74.785 44.7343C74.5223 43.9104 73.8136 42.6869 73.166 41.9613C70.0991 42.6869 67.0322 43.3448 64.5518 43.9043L63.8736 40.3442C65.1138 40.1475 66.6168 39.9138 68.2357 39.5879V30.9798H64.2524V27.6841H68.2357V25.2739H65.6392V24.1548C65.2544 24.5852 64.845 24.9787 64.4601 25.3415C64.2524 24.45 63.6048 22.2426 63.1344 21.2834C65.3765 19.5003 67.6492 16.635 68.975 13.6345L71.5715 14.9564C71.3943 15.35 71.2171 15.7496 71.0399 16.1431C72.9583 17.3606 74.785 18.8116 75.8786 20.0045L74.9072 21.8183H78.5056C78.3284 21.0252 78.0902 20.1336 77.7969 19.3773L80.1857 18.8485H75.4937V15.8787H81.1876C81.0105 15.35 80.8027 14.8212 80.5706 14.3969L83.668 13.573C84.0224 14.2309 84.4378 15.0917 84.7311 15.8787H90.48V18.8485H85.6719L88.3539 19.3773C87.969 20.2689 87.5841 21.0928 87.2603 21.8183H90.9749V24.8496H74.7239V22.1442L74.1924 23.1034L74.1069 23.005V25.28H71.2782V27.6903H74.9927V30.986H71.2782V38.9977L75.2615 38.1737L75.4692 40.8791C77.6503 39.8585 78.2429 38.309 78.5056 35.9664H76.2024V26.0056H89.8263V35.9664H86.7594V40.5164C86.7594 40.9468 86.7899 41.2112 86.8755 41.3096C86.961 41.4079 87.0832 41.4756 87.2603 41.4756H87.8774L87.8957 41.4694ZM66.7512 32.2341C67.2521 34.048 67.6676 36.3906 67.8142 37.9093L65.456 38.6349C65.3949 37.0547 64.9855 34.6752 64.5396 32.8613L66.7512 32.2341ZM73.1782 22.0151C72.1457 20.9944 70.82 19.9676 69.4943 19.0146C68.8772 20.0721 68.1685 21.0621 67.4598 22.0151H73.1843H73.1782ZM71.6142 37.3129C72.0297 35.8619 72.4695 33.5192 72.6467 31.9698L75.1821 32.6646C74.6506 34.5091 74.1802 36.5874 73.7647 37.977L71.6142 37.3191V37.3129ZM79.1654 29.8608H86.7472V28.4097H79.1654V29.8608ZM79.1654 33.5561H86.7472V32.105H79.1654V33.5561ZM80.6683 18.8485C81.0532 19.7401 81.4625 20.9268 81.6092 21.8183H84.2362C84.5906 20.896 84.9754 19.7401 85.1526 18.8485H80.6683Z" fill="#3B1E86"/>
<path id="Vector_2" d="M101.642 22.2795H106.358V25.5752H103.469L105.24 26.0671C104.739 27.223 104.208 28.3421 103.737 29.3996H105.772V32.6953H101.642V35.3331H106.358V38.6288H101.642V44.5007H98.3977V38.6288H93.2964V35.3331H98.3977V32.6953H94.0051V29.3996H96.1006C95.8929 28.4097 95.453 27.1554 95.0681 26.1347L96.7177 25.5752H93.327V22.2795H98.3977V20.0045H94.1212V16.7703H98.3977V13.9358H101.642V16.7703H105.68V20.0045H101.642V22.2795ZM100.811 29.3996C101.342 28.1822 101.874 26.7619 102.228 25.5752H97.7135C98.2145 26.6942 98.7154 28.0162 98.8621 28.9078L97.5363 29.3996H100.811ZM120.043 27.223C119.481 31.1151 118.449 34.7121 116.976 37.7741C118.155 39.2559 119.512 40.4426 121.015 41.3034C120.275 42.029 119.243 43.4493 118.711 44.4023C117.386 43.5108 116.176 42.3548 115.082 40.9714C114.111 42.4225 112.987 43.6399 111.722 44.6975C111.399 44.138 110.867 43.5108 110.335 42.9144V44.5622H107.152V15.2209H119.335V21.4187C119.335 23.1034 119.011 24.0565 117.862 24.5853C116.744 25.114 115.15 25.1448 112.993 25.1448C112.846 24.0872 112.4 22.7345 111.991 21.7815C113.439 21.8491 115.058 21.8491 115.498 21.8491C115.938 21.8184 116.091 21.72 116.091 21.3572V18.6518H110.342V26.5344H117.361L117.923 26.3684L120.049 27.223H120.043ZM110.342 41.2419C111.405 40.2827 112.29 39.1637 113.085 37.9094C111.967 35.8988 111.081 33.5869 110.342 31.1151V41.2419ZM112.785 29.6333C113.317 31.3488 113.995 33.0273 114.82 34.5461C115.467 33.0273 115.968 31.3488 116.353 29.6333H112.785Z" fill="#3B1E86"/>
<path id="Vector_3" d="M130.777 32.3326V44.1073H129.391V32.3326H123.257V30.8816H129.391V26.8911H123.141V25.4708H131.431C132.048 23.786 132.787 21.3143 133.203 19.6357L134.559 20.0292C134.028 21.7754 133.38 23.8906 132.763 25.4708H136.862V26.8911H130.79V30.8816H136.661V32.3326H130.79H130.777ZM127.448 34.8106C126.739 37.2208 125.56 39.7233 124.35 41.3712C124.143 41.1744 123.611 40.7133 123.287 40.5472C124.528 38.9301 125.56 36.6859 126.208 34.4785L127.448 34.8106ZM136.41 19.2729H123.581V17.8526H129.861C129.446 16.8319 128.829 15.5776 128.328 14.6184L129.684 14.188C130.331 15.3439 131.071 16.795 131.456 17.8464H136.41V19.2668V19.2729ZM127.002 25.1141C126.855 23.7614 126.354 21.5848 125.731 20.0046L126.91 19.7095C127.558 21.2897 128.12 23.4048 128.266 24.7206L126.996 25.1141H127.002ZM133.612 34.3801C134.614 36.1264 135.677 38.3706 136.148 39.8524L135.054 40.5104C134.584 38.9916 133.521 36.649 132.574 34.9028L133.606 34.374L133.612 34.3801ZM149.686 27.0264H146.149V44.0089H144.762V27.0264H139.923V28.6435C139.923 33.2918 139.538 39.6249 136.71 43.9782C136.502 43.6462 135.97 43.185 135.647 42.9883C138.329 38.8687 138.597 33.0951 138.597 28.6435V17.496C141.933 16.8995 145.855 15.9772 147.945 15.0549L149.185 16.2416C146.766 17.2008 143.167 18.0555 139.923 18.5474V25.5384H149.686V27.0202V27.0264Z" fill="#3B1E86"/>
<path id="Vector_4" d="M155.319 25.6735V44.2424H153.932V15.7435H164.281V25.6735H155.313H155.319ZM155.319 17.0347V20.0352H162.925V17.0347H155.319ZM162.931 24.3885V21.3203H155.325V24.3885H162.931ZM170.831 39.5264V43.1541H169.505V39.5264H157.561V38.2045H160.805V29.1352H158.355V27.8501H173.25V29.1352H170.831V38.2045H173.836V39.5264H170.831ZM162.1 29.1352V31.3795H169.505V29.1352H162.1ZM162.1 34.7735H169.505V32.5662H162.1V34.7735ZM169.505 38.2045V35.9971H162.1V38.2045H169.505ZM177.911 41.9305C177.911 43.0865 177.673 43.5784 176.97 43.8735C176.292 44.1379 175.022 44.1687 173.048 44.1687C172.987 43.7382 172.786 43.0803 172.578 42.6192C174.142 42.6499 175.559 42.6499 175.969 42.6192C176.384 42.6192 176.531 42.4532 176.531 41.9613V25.6674H167.299V15.7373H177.917V41.9244L177.911 41.9305ZM168.649 17.0347V20.0352H176.524V17.0347H168.649ZM176.524 24.3885V21.3203H168.649V24.3885H176.524Z" fill="#3B1E86"/>
<path id="Vector_5" d="M184.693 35.3699C184.277 38.2045 183.721 41.3095 183.098 43.3509C182.835 43.2217 182.273 42.9574 181.919 42.8221C182.628 40.7438 183.129 37.8109 183.453 35.1363L184.693 35.3699ZM190.564 26.6327C191.389 28.6802 192.274 31.4163 192.629 33.0334L191.419 33.5253C191.334 32.9965 191.181 32.4063 191.004 31.7422C183.923 32.9597 183.098 33.1933 182.597 33.4884C182.536 33.1257 182.335 32.3325 182.157 31.939C182.689 31.8406 183.367 30.949 184.192 29.7316C184.693 29.0737 185.786 27.389 186.996 25.3107C183.398 25.8026 182.78 25.9686 182.457 26.1654C182.371 25.8026 182.163 25.0771 181.986 24.6467C182.457 24.5483 182.927 23.792 183.55 22.8021C184.198 21.7814 186.324 17.9201 187.65 14.2924L188.92 14.9503C187.503 18.2828 185.792 21.7445 184.057 24.3147L187.802 23.9211C188.597 22.4701 189.366 20.8899 190.045 19.3342L191.285 20.0598C189.25 24.1794 186.892 28.3051 184.473 31.4717L190.637 30.4817C190.283 29.2951 189.867 28.0715 189.458 26.9832L190.576 26.6204L190.564 26.6327ZM187.644 35.0379C187.998 37.2822 188.383 40.1843 188.468 42.0965L187.289 42.3917C187.204 40.4487 186.874 37.5097 186.495 35.3023L187.644 35.0379ZM190.802 34.3124C191.48 36.3599 192.25 39.0284 192.598 40.7438L191.48 41.1742C191.156 39.3911 190.387 36.7226 189.739 34.6751L190.802 34.3124ZM207.994 42.0658C207.994 43.1541 207.756 43.6153 207.139 43.9104C206.522 44.1748 205.342 44.2055 203.601 44.1748C203.516 43.7813 203.339 43.1172 203.161 42.6561C204.548 42.7237 205.788 42.6868 206.167 42.6868C206.552 42.6561 206.668 42.5208 206.668 42.0904V17.4282H194.608V44.2424H193.283V15.9463H208V42.0658H207.994ZM195.488 24.3884H201.768C202.3 22.7406 203.009 20.2688 203.332 18.6149L204.542 19.0453C204.041 20.7607 203.424 22.839 202.862 24.3884H205.99V25.7719H195.488V24.3884ZM203.717 36.2246C204.249 36.2246 205.074 36.2246 205.544 36.0955C205.575 36.5259 205.63 37.0854 205.691 37.4174C205.306 37.5465 204.542 37.5465 203.772 37.5465H199.111C197.516 37.5465 197.107 36.8886 197.107 35.0379V31.0474H195.897V29.664H200.528C200.266 28.7048 199.612 27.3213 199.08 26.3007L200.113 25.8088C200.675 26.8295 201.353 28.2805 201.646 29.1413L200.73 29.6701H205.446V31.0536H198.366V35.0748C198.366 35.9663 198.482 36.2307 199.135 36.2307H203.705L203.717 36.2246ZM197.822 18.5472C198.647 20.029 199.386 22.1073 199.649 23.46L198.585 23.8904C198.323 22.5377 197.614 20.4595 196.814 18.91L197.816 18.5472H197.822Z" fill="#3B1E86"/>
</g>
<g id="Clip path group">
<mask id="mask0_4551_115311" style="mask-type:luminance" maskUnits="userSpaceOnUse" x="0" y="-1" width="58" height="60">
<g id="clippath">
<path id="Vector_6" d="M28.934 58.12C44.9139 58.12 57.8681 45.0825 57.8681 29C57.8681 12.9175 44.9139 -0.119995 28.934 -0.119995C12.9542 -0.119995 0 12.9175 0 29C0 45.0825 12.9542 58.12 28.934 58.12Z" fill="white"/>
</g>
</mask>
<g mask="url(#mask0_4551_115311)">
<g id="Group_2">
<path id="Vector_7" d="M65.8836 29.0002C65.8836 50.3667 48.6735 67.6875 27.4434 67.6875C6.2133 67.6875 -10.9968 50.3667 -10.9968 29.0002C-10.9968 7.63361 6.2133 -9.68713 27.4434 -9.68713C48.6735 -9.68713 65.8836 7.63361 65.8836 29.0002Z" fill="url(#paint0_linear_4551_115311)"/>
<g id="Group_3" opacity="0.8">
<g id="Group_4">
<g id="Group_5">
<path id="Vector_8" d="M8.88296 12.5955H8.54695V-1.08529L-4.17278 -13.8868H-10.386L-13.2697 -16.7889L-13.0375 -17.0226L-10.2516 -14.2188H-4.03227L8.88296 -1.22056V12.5955Z" fill="white"/>
<path id="Vector_9" d="M8.33923 12.577C8.33923 12.786 8.50419 12.952 8.71191 12.952C8.91962 12.952 9.08458 12.786 9.08458 12.577C9.08458 12.3679 8.91962 12.2019 8.71191 12.2019C8.50419 12.2019 8.33923 12.3679 8.33923 12.577Z" fill="white"/>
</g>
<g id="Group_6">
<path id="Vector_10" d="M11.8827 15.5408H11.2229V-1.78612L-3.15247 -16.2477L-2.68815 -16.7212L11.8827 -2.05666V15.5408Z" fill="white"/>
<path id="Vector_11" d="M10.9296 15.51C10.9296 15.8543 11.2107 16.1371 11.5528 16.1371C11.8949 16.1371 12.1759 15.8543 12.1759 15.51C12.1759 15.1657 11.8949 14.8828 11.5528 14.8828C11.2107 14.8828 10.9296 15.1657 10.9296 15.51Z" fill="white"/>
</g>
<g id="Group_7">
<path id="Vector_12" d="M15.6156 12.5955H15.2856V-0.562651L6.64087 -9.26299V-16.9058H6.97078V-9.39826L15.6156 -0.697922V12.5955Z" fill="white"/>
<path id="Vector_13" d="M15.0779 12.577C15.0779 12.786 15.2429 12.952 15.4506 12.952C15.6583 12.952 15.8233 12.786 15.8233 12.577C15.8233 12.3679 15.6583 12.2019 15.4506 12.2019C15.2429 12.2019 15.0779 12.3679 15.0779 12.577Z" fill="white"/>
</g>
<g id="Group_8">
<path id="Vector_14" d="M7.5695 19.5127H7.2396V-0.372042L-3.40906 -11.0891H-15.3529L-21.0163 -16.7889L-20.7841 -17.0226L-15.2124 -11.4212H-3.26854L7.5695 -0.507311V19.5127Z" fill="white"/>
<path id="Vector_15" d="M7.40453 19.8693C7.61035 19.8693 7.7772 19.7014 7.7772 19.4942C7.7772 19.2871 7.61035 19.1191 7.40453 19.1191C7.19871 19.1191 7.03186 19.2871 7.03186 19.4942C7.03186 19.7014 7.19871 19.8693 7.40453 19.8693Z" fill="white"/>
</g>
<g id="Group_9">
<path id="Vector_16" d="M5.66341 17.6435H5.3335V1.05446L-4.93637 -9.27527H-16.7275V-9.6073H-4.79586L5.66341 0.919187V17.6435Z" fill="white"/>
<path id="Vector_17" d="M5.12573 17.6249C5.12573 17.834 5.29069 18 5.4984 18C5.70612 18 5.87108 17.834 5.87108 17.6249C5.87108 17.4159 5.70612 17.2499 5.4984 17.2499C5.29069 17.2499 5.12573 17.4159 5.12573 17.6249Z" fill="white"/>
</g>
<g id="Group_10">
<path id="Vector_18" d="M6.54924 25.1387L6.31097 24.905L17.4911 13.653V-6.60063L27.8527 -17.0226L28.0848 -16.7889L17.8272 -6.46535V13.7883L6.54924 25.1387Z" fill="white"/>
<path id="Vector_19" d="M6.17662 24.7453C6.02999 24.8929 6.02999 25.1327 6.17662 25.2741C6.32324 25.4217 6.56151 25.4217 6.70203 25.2741C6.84865 25.1265 6.84865 24.8867 6.70203 24.7453C6.5554 24.5978 6.31714 24.5978 6.17662 24.7453Z" fill="white"/>
</g>
<g id="Group_11">
<path id="Vector_20" d="M7.47174 26.9526H1.81445V26.6205H7.33733L19.0185 14.8582V-5.39549L30.5774 -17.0226L30.8096 -16.7889L19.3545 -5.25407V14.9996L7.47174 26.9526Z" fill="white"/>
<path id="Vector_21" d="M1.83282 26.4116C1.6251 26.4116 1.46014 26.5776 1.46014 26.7867C1.46014 26.9957 1.6251 27.1618 1.83282 27.1618C2.04054 27.1618 2.20549 26.9957 2.20549 26.7867C2.20549 26.5776 2.04054 26.4116 1.83282 26.4116Z" fill="white"/>
</g>
<g id="Group_12">
<path id="Vector_22" d="M22.6718 5.02657L22.2075 4.55928L25.8915 0.851642V-5.07565L34.1514 -13.3948L34.6218 -12.9213L26.5513 -4.80511V1.12833L22.6718 5.02657Z" fill="white"/>
<path id="Vector_23" d="M22.4643 5.40154C22.8084 5.40154 23.0874 5.12075 23.0874 4.77438C23.0874 4.42801 22.8084 4.14722 22.4643 4.14722C22.1201 4.14722 21.8411 4.42801 21.8411 4.77438C21.8411 5.12075 22.1201 5.40154 22.4643 5.40154Z" fill="white"/>
</g>
<g id="Group_13">
<path id="Vector_24" d="M21.4928 12.8475L21.2546 12.6139L33.1984 0.587128V-6.60064L43.3033 -16.7705L43.5416 -16.5369L33.5344 -6.46537V0.728546L21.4928 12.8475Z" fill="white"/>
<path id="Vector_25" d="M21.1202 12.4477C20.9735 12.5953 20.9735 12.8351 21.1202 12.9765C21.2668 13.1241 21.5051 13.1241 21.6456 12.9765C21.7922 12.8289 21.7922 12.5891 21.6456 12.4477C21.4989 12.3001 21.2607 12.3001 21.1202 12.4477Z" fill="white"/>
</g>
<g id="Group_14">
<path id="Vector_26" d="M11.7972 28.17L11.559 27.9363L38.5136 0.808498V-5.20488L51.2699 -18.0371L51.5021 -17.8035L38.8496 -5.06346V0.943769L11.7972 28.17Z" fill="white"/>
<path id="Vector_27" d="M11.4245 27.7766C11.2779 27.9241 11.2779 28.1639 11.4245 28.3054C11.5712 28.4529 11.8094 28.4529 11.95 28.3054C12.0966 28.1578 12.0966 27.918 11.95 27.7766C11.8033 27.629 11.5651 27.629 11.4245 27.7766Z" fill="white"/>
</g>
<path id="Vector_28" d="M-11.834 40.4489L-12.3044 39.9755L-2.35831 29.9655H12.1209L58.5095 -16.7212L58.9799 -16.2477L12.3958 30.6296H-2.08339L-11.834 40.4489Z" fill="white"/>
<path id="Vector_29" d="M-11.9622 43.3817L-12.2004 43.1481L-1.44793 32.3326H12.848L47.0972 -2.13673H68.6878L83.2281 -16.7705L83.4603 -16.5369L68.8222 -1.8047H47.2316L12.9885 32.6646H-1.31352L-11.9622 43.3817Z" fill="white"/>
<g id="Group_15">
<path id="Vector_30" d="M24.0954 25.5384L23.8632 25.2986L48.1847 0.820801H66.4456V1.15283H48.3252L24.0954 25.5384Z" fill="white"/>
<path id="Vector_31" d="M23.7289 25.1388C23.5822 25.2863 23.5822 25.5261 23.7289 25.6675C23.8755 25.809 24.1138 25.8151 24.2543 25.6675C24.4009 25.52 24.4009 25.2802 24.2543 25.1388C24.1076 24.9912 23.8694 24.9912 23.7289 25.1388Z" fill="white"/>
</g>
<g id="Group_16">
<path id="Vector_32" d="M23.7655 35.7698L23.0629 35.0689L47.0178 10.96H59.9941L67.4293 3.48328L68.1257 4.19037L60.4096 11.9623H47.4271L23.7655 35.7698Z" fill="white"/>
<path id="Vector_33" d="M18.4748 35.6652C18.1082 36.0342 18.1082 36.6244 18.4748 36.9933C18.8414 37.3623 19.4279 37.3623 19.7944 36.9933C20.161 36.6244 20.161 36.0342 19.7944 35.6652C19.4279 35.2963 18.8414 35.2963 18.4748 35.6652Z" fill="white"/>
</g>
<g id="Group_17">
<path id="Vector_34" d="M22.6597 36.1814L22.4214 35.9478L35.8987 22.3839H40.1509L45.9303 16.5673H52.6201V16.8993H46.0709L40.2853 22.7221H36.0331L22.6597 36.1814Z" fill="white"/>
<path id="Vector_35" d="M52.4673 17.1085C52.6731 17.1085 52.8399 16.9406 52.8399 16.7335C52.8399 16.5263 52.6731 16.3584 52.4673 16.3584C52.2615 16.3584 52.0946 16.5263 52.0946 16.7335C52.0946 16.9406 52.2615 17.1085 52.4673 17.1085Z" fill="white"/>
<path id="Vector_36" d="M21.3155 37.6942C21.5214 37.6942 21.6882 37.5263 21.6882 37.3192C21.6882 37.112 21.5214 36.9441 21.3155 36.9441C21.1097 36.9441 20.9429 37.112 20.9429 37.3192C20.9429 37.5263 21.1097 37.6942 21.3155 37.6942Z" fill="white"/>
</g>
<path id="Vector_37" d="M23.7105 37.9586C23.5028 37.9586 23.3378 37.7926 23.3378 37.5836C23.3378 37.3745 23.5028 37.2085 23.7105 37.2085C23.9182 37.2085 24.0832 37.3745 24.0832 37.5836C24.0832 37.7926 23.9182 37.9586 23.7105 37.9586Z" fill="white"/>
<g id="Group_18">
<path id="Vector_38" d="M36.3325 32.3265H12.8297V31.6624H36.0576L47.6471 19.9923L48.1175 20.4658L36.3325 32.3265Z" fill="white"/>
<path id="Vector_39" d="M47.421 19.8078C47.6654 19.5618 48.0564 19.5618 48.3008 19.8078C48.5451 20.0537 48.5451 20.4472 48.3008 20.6932C48.0564 20.9391 47.6654 20.9391 47.421 20.6932C47.1766 20.4472 47.1766 20.0537 47.421 19.8078Z" fill="white"/>
<path id="Vector_40" d="M12.8603 32.6216C13.2044 32.6216 13.4834 32.3408 13.4834 31.9945C13.4834 31.6481 13.2044 31.3673 12.8603 31.3673C12.5161 31.3673 12.2371 31.6481 12.2371 31.9945C12.2371 32.3408 12.5161 32.6216 12.8603 32.6216Z" fill="white"/>
</g>
<g id="Group_19">
<path id="Vector_41" d="M-13.3307 43.763L-13.5629 43.5232L-5.99945 35.9111H4.88136L9.68333 40.744H31.4388L52.9744 19.07H89.2519L98.0555 10.2159H109.798V10.548H98.1899L89.3863 19.4082H53.1088L31.5794 41.076H9.54281L4.74695 36.2432H-5.85894L-13.3307 43.763Z" fill="white"/>
</g>
<g id="Group_20">
<path id="Vector_42" d="M42.7107 36.5813L42.2463 36.1079L53.7503 24.53H88.8915L97.8967 15.473H109.993V16.1371H98.1655L89.1664 25.194H54.0252L42.7107 36.5813Z" fill="white"/>
<path id="Vector_43" d="M34.2248 46.5606C33.9804 46.8065 33.5894 46.8065 33.345 46.5606C33.1006 46.3146 33.1006 45.9211 33.345 45.6752C33.5894 45.4292 33.9804 45.4292 34.2248 45.6752C34.4692 45.9211 34.4692 46.3146 34.2248 46.5606Z" fill="white"/>
</g>
<g id="Group_21">
<path id="Vector_44" d="M42.1853 40.621L41.9531 40.3874L54.7034 27.5552H91.2497L99.3508 19.4082H108.472V19.7402H99.4852L91.3841 27.8872H54.8378L42.1853 40.621Z" fill="white"/>
</g>
<g id="Group_22">
<path id="Vector_45" d="M45.3499 43.1359L45.1177 42.9023L58.8577 29.0739H95.6362L103.481 21.1791H111.166V21.5111H103.615L95.7706 29.406H58.9983L45.3499 43.1359Z" fill="white"/>
</g>
<g id="Group_23">
<path id="Vector_46" d="M45.8326 45.1033L45.5943 44.8635L59.487 30.8815H97.3774L105.118 23.0973H110.616V23.4293H105.252L97.5179 31.2135H59.6275L45.8326 45.1033Z" fill="white"/>
<path id="Vector_47" d="M45.9913 45.2324C45.8447 45.3799 45.6064 45.3799 45.4659 45.2324C45.3254 45.0848 45.3193 44.845 45.4659 44.7036C45.6125 44.5622 45.8508 44.556 45.9913 44.7036C46.1318 44.8512 46.1379 45.091 45.9913 45.2324Z" fill="white"/>
</g>
<g id="Group_24">
<path id="Vector_48" d="M72.1029 43.6832H51.9908V43.3511H71.9624L76.0252 39.2684H112.254V39.6005H76.1596L72.1029 43.6832Z" fill="white"/>
<path id="Vector_49" d="M52.0092 43.892C52.215 43.892 52.3819 43.7241 52.3819 43.5169C52.3819 43.3098 52.215 43.1418 52.0092 43.1418C51.8034 43.1418 51.6365 43.3098 51.6365 43.5169C51.6365 43.7241 51.8034 43.892 52.0092 43.892Z" fill="white"/>
</g>
<g id="Group_25">
<path id="Vector_50" d="M7.10524 42.6193L11.3146 46.8618H29.6733L32.9235 50.1329H63.7025L63.7514 50.1821L67.527 53.982L67.2949 54.2156L63.5681 50.4649H32.7891L29.5328 47.1939H11.1802L6.96472 42.9513" fill="white"/>
<path id="Vector_51" d="M7.25186 43.0559C7.01359 43.2957 6.62259 43.2957 6.38433 43.0559C6.14606 42.8161 6.14606 42.4226 6.38433 42.1828C6.62259 41.943 7.01359 41.943 7.25186 42.1828C7.49012 42.4226 7.49012 42.8161 7.25186 43.0559Z" fill="white"/>
</g>
<g id="Group_26">
<path id="Vector_52" d="M110.085 49.6164H67.918L64.9244 47.9563H39.7048V46.9602H65.181L68.1746 48.6203H110.085V49.6164Z" fill="white"/>
<path id="Vector_53" d="M39.7476 48.3989C39.2344 48.3989 38.8129 47.9808 38.8129 47.4582C38.8129 46.9356 39.2283 46.5175 39.7476 46.5175C40.2669 46.5175 40.6823 46.9356 40.6823 47.4582C40.6823 47.9808 40.2669 48.3989 39.7476 48.3989Z" fill="white"/>
</g>
<g id="Group_27">
<path id="Vector_54" d="M0.238205 17.0901L-11.4857 5.29699H-32.3004L-38.6786 11.7162H-55.6688L-75.958 -8.70349L-75.7197 -8.93713L-55.5282 11.3842H-38.813L-32.4348 4.96496H-11.3452L0.47036 16.8565L0.238205 17.0901Z" fill="white"/>
<path id="Vector_55" d="M0.604858 16.6966C0.751483 16.8442 0.751483 17.084 0.604858 17.2254C0.458233 17.373 0.219967 17.373 0.0794513 17.2254C-0.0671739 17.0778 -0.0671739 16.838 0.0794513 16.6966C0.226076 16.549 0.464342 16.549 0.604858 16.6966Z" fill="white"/>
</g>
<path id="Vector_56" d="M2.22993 7.49221C2.65507 7.49221 2.99971 7.14535 2.99971 6.71748C2.99971 6.28961 2.65507 5.94275 2.22993 5.94275C1.80479 5.94275 1.46014 6.28961 1.46014 6.71748C1.46014 7.14535 1.80479 7.49221 2.22993 7.49221Z" fill="white"/>
<path id="Vector_57" d="M2.22993 11.6671C2.65507 11.6671 2.99971 11.3203 2.99971 10.8924C2.99971 10.4645 2.65507 10.1177 2.22993 10.1177C1.80479 10.1177 1.46014 10.4645 1.46014 10.8924C1.46014 11.3203 1.80479 11.6671 2.22993 11.6671Z" fill="white"/>
<path id="Vector_58" d="M2.22993 15.8358C2.65507 15.8358 2.99971 15.489 2.99971 15.0611C2.99971 14.6332 2.65507 14.2864 2.22993 14.2864C1.80479 14.2864 1.46014 14.6332 1.46014 15.0611C1.46014 15.489 1.80479 15.8358 2.22993 15.8358Z" fill="white"/>
<g id="Group_28">
<path id="Vector_59" d="M53.2127 4.43017C53.4387 4.43017 53.622 4.22922 53.622 3.98132C53.622 3.73343 53.4387 3.53247 53.2127 3.53247C52.9866 3.53247 52.8033 3.73343 52.8033 3.98132C52.8033 4.22922 52.9866 4.43017 53.2127 4.43017Z" fill="white"/>
<path id="Vector_60" d="M53.2127 6.84045C53.4387 6.84045 53.622 6.63949 53.622 6.3916C53.622 6.14371 53.4387 5.94275 53.2127 5.94275C52.9866 5.94275 52.8033 6.14371 52.8033 6.3916C52.8033 6.63949 52.9866 6.84045 53.2127 6.84045Z" fill="white"/>
<path id="Vector_61" d="M53.2127 9.25073C53.4387 9.25073 53.622 9.04977 53.622 8.80188C53.622 8.55399 53.4387 8.35303 53.2127 8.35303C52.9866 8.35303 52.8033 8.55399 52.8033 8.80188C52.8033 9.04977 52.9866 9.25073 53.2127 9.25073Z" fill="white"/>
<path id="Vector_62" d="M55.1616 4.43017C55.3877 4.43017 55.571 4.22922 55.571 3.98132C55.571 3.73343 55.3877 3.53247 55.1616 3.53247C54.9356 3.53247 54.7523 3.73343 54.7523 3.98132C54.7523 4.22922 54.9356 4.43017 55.1616 4.43017Z" fill="white"/>
<path id="Vector_63" d="M55.1616 6.84045C55.3877 6.84045 55.571 6.63949 55.571 6.3916C55.571 6.14371 55.3877 5.94275 55.1616 5.94275C54.9356 5.94275 54.7523 6.14371 54.7523 6.3916C54.7523 6.63949 54.9356 6.84045 55.1616 6.84045Z" fill="white"/>
<path id="Vector_64" d="M55.1616 9.25073C55.3877 9.25073 55.571 9.04977 55.571 8.80188C55.571 8.55399 55.3877 8.35303 55.1616 8.35303C54.9356 8.35303 54.7523 8.55399 54.7523 8.80188C54.7523 9.04977 54.9356 9.25073 55.1616 9.25073Z" fill="white"/>
<path id="Vector_65" d="M57.1105 4.43017C57.3366 4.43017 57.5198 4.22922 57.5198 3.98132C57.5198 3.73343 57.3366 3.53247 57.1105 3.53247C56.8844 3.53247 56.7012 3.73343 56.7012 3.98132C56.7012 4.22922 56.8844 4.43017 57.1105 4.43017Z" fill="white"/>
<path id="Vector_66" d="M57.1105 6.84045C57.3366 6.84045 57.5198 6.63949 57.5198 6.3916C57.5198 6.14371 57.3366 5.94275 57.1105 5.94275C56.8844 5.94275 56.7012 6.14371 56.7012 6.3916C56.7012 6.63949 56.8844 6.84045 57.1105 6.84045Z" fill="white"/>
<path id="Vector_67" d="M57.1105 9.25073C57.3366 9.25073 57.5198 9.04977 57.5198 8.80188C57.5198 8.55399 57.3366 8.35303 57.1105 8.35303C56.8844 8.35303 56.7012 8.55399 56.7012 8.80188C56.7012 9.04977 56.8844 9.25073 57.1105 9.25073Z" fill="white"/>
</g>
<path id="Vector_68" d="M21.3095 52.8937C21.7347 52.8937 22.0793 52.5468 22.0793 52.119C22.0793 51.6911 21.7347 51.3442 21.3095 51.3442C20.8844 51.3442 20.5397 51.6911 20.5397 52.119C20.5397 52.5468 20.8844 52.8937 21.3095 52.8937Z" fill="white"/>
<path id="Vector_69" d="M17.1674 52.8937C17.5925 52.8937 17.9371 52.5468 17.9371 52.119C17.9371 51.6911 17.5925 51.3442 17.1674 51.3442C16.7422 51.3442 16.3976 51.6911 16.3976 52.119C16.3976 52.5468 16.7422 52.8937 17.1674 52.8937Z" fill="white"/>
<path id="Vector_70" d="M25.4518 52.8937C25.8769 52.8937 26.2216 52.5468 26.2216 52.119C26.2216 51.6911 25.8769 51.3442 25.4518 51.3442C25.0266 51.3442 24.682 51.6911 24.682 52.119C24.682 52.5468 25.0266 52.8937 25.4518 52.8937Z" fill="white"/>
<path id="Vector_71" d="M13.9843 44.0889C14.2138 44.0889 14.3998 43.9017 14.3998 43.6708C14.3998 43.4399 14.2138 43.2527 13.9843 43.2527C13.7549 43.2527 13.5689 43.4399 13.5689 43.6708C13.5689 43.9017 13.7549 44.0889 13.9843 44.0889Z" fill="white"/>
<path id="Vector_72" d="M16.2265 44.0889C16.4559 44.0889 16.6419 43.9017 16.6419 43.6708C16.6419 43.4399 16.4559 43.2527 16.2265 43.2527C15.997 43.2527 15.811 43.4399 15.811 43.6708C15.811 43.9017 15.997 44.0889 16.2265 44.0889Z" fill="white"/>
<path id="Vector_73" d="M18.4626 44.0889C18.692 44.0889 18.878 43.9017 18.878 43.6708C18.878 43.4399 18.692 43.2527 18.4626 43.2527C18.2331 43.2527 18.0471 43.4399 18.0471 43.6708C18.0471 43.9017 18.2331 44.0889 18.4626 44.0889Z" fill="white"/>
<path id="Vector_74" d="M20.7047 44.0889C20.9342 44.0889 21.1202 43.9017 21.1202 43.6708C21.1202 43.4399 20.9342 43.2527 20.7047 43.2527C20.4753 43.2527 20.2893 43.4399 20.2893 43.6708C20.2893 43.9017 20.4753 44.0889 20.7047 44.0889Z" fill="white"/>
<path id="Vector_75" d="M13.9843 45.792C14.2138 45.792 14.3998 45.6048 14.3998 45.3739C14.3998 45.143 14.2138 44.9558 13.9843 44.9558C13.7549 44.9558 13.5689 45.143 13.5689 45.3739C13.5689 45.6048 13.7549 45.792 13.9843 45.792Z" fill="white"/>
<path id="Vector_76" d="M16.2265 45.792C16.4559 45.792 16.6419 45.6048 16.6419 45.3739C16.6419 45.143 16.4559 44.9558 16.2265 44.9558C15.997 44.9558 15.811 45.143 15.811 45.3739C15.811 45.6048 15.997 45.792 16.2265 45.792Z" fill="white"/>
<path id="Vector_77" d="M18.4626 45.792C18.692 45.792 18.878 45.6048 18.878 45.3739C18.878 45.143 18.692 44.9558 18.4626 44.9558C18.2331 44.9558 18.0471 45.143 18.0471 45.3739C18.0471 45.6048 18.2331 45.792 18.4626 45.792Z" fill="white"/>
<path id="Vector_78" d="M20.7047 45.792C20.9342 45.792 21.1202 45.6048 21.1202 45.3739C21.1202 45.143 20.9342 44.9558 20.7047 44.9558C20.4753 44.9558 20.2893 45.143 20.2893 45.3739C20.2893 45.6048 20.4753 45.792 20.7047 45.792Z" fill="white"/>
<g id="Group_29">
<path id="Vector_79" d="M56.359 54.2895H31.4205L26.3069 49.143H9.8727L8.09487 50.9323H8.02767C3.07907 51.0553 -5.26635 51.2151 -5.59015 50.8831L-7.72843 48.7311H-12.1394V48.399H-7.59402L-5.37632 50.631C-4.78371 50.8339 2.87135 50.7232 7.95436 50.6003L9.73829 48.8049H26.4413L31.5549 53.9513H56.359V54.2833V54.2895Z" fill="white"/>
<path id="Vector_80" d="M56.3408 54.4984C56.5485 54.4984 56.7134 54.3324 56.7134 54.1234C56.7134 53.9143 56.5485 53.7483 56.3408 53.7483C56.133 53.7483 55.9681 53.9143 55.9681 54.1234C55.9681 54.3324 56.133 54.4984 56.3408 54.4984Z" fill="white"/>
</g>
<g id="Group_30">
<path id="Vector_81" d="M40.4686 64.1888H20.5704L13.9905 57.5667H-5.40674L-12.3959 50.5265L-12.1637 50.2928L-5.26622 57.2347H14.1311L20.7109 63.8568H40.3342L44.2625 59.9032H69.4271L78.3529 50.92H111.221V51.252H78.4873L69.5676 60.2352H44.3969L40.4686 64.1888Z" fill="white"/>
</g>
<g id="Group_31">
<path id="Vector_82" d="M38.4341 62.1967H21.8899L15.1696 55.4331H-4.19104V55.095H15.3101L22.0304 61.8646H38.2936L42.9795 57.1486H66.4456V57.4806H43.1139L38.4341 62.1967Z" fill="white"/>
</g>
</g>
</g>
<path id="Vector_83" d="M22.4886 39.7417C32.7291 39.7417 41.0306 31.3868 41.0306 21.0806C41.0306 10.7743 32.7291 2.41943 22.4886 2.41943C12.2482 2.41943 3.94666 10.7743 3.94666 21.0806C3.94666 31.3868 12.2482 39.7417 22.4886 39.7417Z" fill="url(#paint1_linear_4551_115311)"/>
<path id="Vector_84" d="M22.4887 38.8256C32.2264 38.8256 40.1203 30.8809 40.1203 21.0806C40.1203 11.2803 32.2264 3.33557 22.4887 3.33557C12.751 3.33557 4.85699 11.2803 4.85699 21.0806C4.85699 30.8809 12.751 38.8256 22.4887 38.8256Z" fill="url(#paint2_linear_4551_115311)"/>
<path id="Vector_85" d="M22.0426 32.7816C28.7166 32.7816 34.127 27.3364 34.127 20.6195C34.127 13.9026 28.7166 8.45752 22.0426 8.45752C15.3686 8.45752 9.95825 13.9026 9.95825 20.6195C9.95825 27.3364 15.3686 32.7816 22.0426 32.7816Z" fill="url(#paint3_linear_4551_115311)"/>
<path id="Vector_86" d="M22.0426 34.1588C29.4725 34.1588 35.4955 28.0971 35.4955 20.6195C35.4955 13.142 29.4725 7.0802 22.0426 7.0802C14.6128 7.0802 8.58978 13.142 8.58978 20.6195C8.58978 28.0971 14.6128 34.1588 22.0426 34.1588Z" fill="url(#paint4_linear_4551_115311)"/>
<path id="Vector_87" d="M22.0426 32.5661C28.7166 32.5661 34.127 27.121 34.127 20.4041C34.127 13.6872 28.7166 8.24207 22.0426 8.24207C15.3686 8.24207 9.95825 13.6872 9.95825 20.4041C9.95825 27.121 15.3686 32.5661 22.0426 32.5661Z" fill="url(#paint5_linear_4551_115311)"/>
<g id="Vector_88" filter="url(#filter0_d_4551_115311)">
<path d="M18.7924 13.6223L28.9095 20.2137C29.4227 20.5518 29.4227 21.3081 28.9095 21.6463L18.7924 28.2377C18.2303 28.6066 17.485 28.1946 17.485 27.5244V14.3479C17.485 13.6715 18.2303 13.2657 18.7924 13.6346V13.6223Z" fill="white"/>
</g>
<g id="Group_32">
<g id="Group_33">
<path id="Vector_89" d="M44.8613 37.2516L45.014 37.473C45.6128 38.3399 45.46 39.4959 44.6841 40.037L38.4403 44.5255C37.6645 45.0665 36.5403 44.8022 35.9416 43.929L35.7889 43.7077C35.1902 42.8407 35.3429 41.6848 36.1188 41.1437L42.3626 36.6552C43.1385 36.1141 44.2626 36.3785 44.8613 37.2516Z" fill="white"/>
<path id="Vector_90" d="M37.5238 45.171C36.8151 45.171 36.0881 44.8021 35.6299 44.138L35.4772 43.9167C34.7624 42.8776 34.9518 41.4941 35.9048 40.8362L42.1425 36.3538C43.0956 35.6898 44.4518 35.9972 45.1605 37.0363L45.3133 37.2577C46.0281 38.2968 45.8387 39.6803 44.8856 40.3382L38.6479 44.8205C38.3058 45.0542 37.9148 45.171 37.5238 45.171ZM43.2727 36.7474C43.0222 36.7474 42.784 36.815 42.5702 36.9626L36.3325 41.4449C35.7154 41.8753 35.6116 42.7915 36.0881 43.4924L36.2408 43.7138C36.7235 44.4147 37.6154 44.6361 38.2203 44.2118L44.458 39.7294C45.075 39.299 45.1789 38.3829 44.7023 37.682L44.5496 37.4606C44.2319 36.9994 43.7432 36.7474 43.2666 36.7474H43.2727Z" fill="black"/>
</g>
<g id="Group_34">
<path id="Vector_91" d="M31.5733 29.5719L31.4695 29.7502C31.0601 30.4511 30.1559 30.6909 29.4595 30.2851C28.9463 29.9838 28.4514 29.6518 27.9627 29.3013C27.4739 28.9509 27.0035 28.6496 26.5636 28.2807C26.0871 27.8872 25.8244 27.2723 25.8549 26.6513C25.8855 26.0241 26.3437 25.4215 26.973 25.6552C27.4678 25.8397 28.0604 26.0979 28.5308 26.3316C29.3556 26.7435 30.2537 27.0755 31.0479 27.5428C31.7444 27.9548 31.9826 28.8648 31.5794 29.5657L31.5733 29.5719Z" fill="white"/>
<path id="Vector_92" d="M30.1926 30.857C29.8749 30.857 29.5572 30.7771 29.27 30.6049C28.8057 30.3344 28.3231 30.0146 27.7488 29.6088L27.37 29.3444C27.0218 29.1046 26.6613 28.8525 26.3253 28.5758C25.7633 28.1147 25.4456 27.3892 25.4822 26.639C25.5067 26.1287 25.751 25.6552 26.1115 25.4154C26.4047 25.2187 26.753 25.1818 27.0951 25.3109C27.59 25.4954 28.1887 25.7536 28.6835 26.0057C28.989 26.1594 29.3067 26.3008 29.6244 26.4423C30.1559 26.6821 30.7119 26.928 31.225 27.2293C31.6466 27.4752 31.9521 27.8811 32.0743 28.3606C32.2026 28.8402 32.1353 29.3383 31.8849 29.7687L31.781 29.947C31.4389 30.5373 30.8218 30.8693 30.1865 30.8693L30.1926 30.857ZM26.698 25.9811C26.6369 25.9811 26.5819 25.9996 26.5208 26.0365C26.3559 26.1471 26.2337 26.4054 26.2215 26.6759C26.197 27.1924 26.4109 27.6843 26.7957 28.004C27.1073 28.2623 27.4556 28.5021 27.7916 28.7357L28.1765 29.0063C28.7324 29.3998 29.1967 29.7072 29.6427 29.9716C30.1681 30.279 30.8402 30.1007 31.1456 29.5719L31.2495 29.3936C31.3961 29.1415 31.4389 28.8402 31.3595 28.5574C31.2861 28.2684 31.1029 28.0286 30.8524 27.8811C30.3697 27.5982 29.8382 27.3584 29.325 27.1309C29.0012 26.9833 28.6713 26.8419 28.3597 26.6821C27.8893 26.4484 27.3028 26.1963 26.8385 26.018C26.7896 25.9996 26.7408 25.9873 26.6919 25.9873L26.698 25.9811Z" fill="black"/>
</g>
<g id="Group_35">
<path id="Vector_93" d="M56.5057 55.5007C54.9783 56.4661 53.6526 55.7036 51.8075 55.2794C49.8831 54.8367 47.4393 53.816 45.967 52.5494C44.8978 51.6271 45.3194 50.1575 45.2339 48.8971L44.9711 45.0111C44.8612 43.3633 44.7451 41.7154 44.6351 40.0615L46.358 36.5752C46.7368 35.8066 47.5371 35.6775 48.1419 36.2862L60.5195 48.8909C61.161 49.555 57.9108 54.1419 57.4648 54.6522C57.1594 55.0027 56.8417 55.2794 56.5057 55.4946V55.5007Z" fill="white"/>
<path id="Vector_94" d="M54.9234 56.3432C54.2269 56.3432 53.5366 56.1465 52.8279 55.9435C52.4796 55.8452 52.1131 55.7406 51.7282 55.6484C50.0053 55.2487 47.4027 54.2773 45.7288 52.8323C44.794 52.0269 44.8307 50.8832 44.8673 49.8687C44.8796 49.5367 44.8918 49.2169 44.8673 48.9156L44.2625 39.9817L46.0281 36.4093C46.2603 35.9358 46.6574 35.6161 47.1095 35.5485C47.5616 35.4747 48.032 35.653 48.4047 36.0281L60.7823 48.6328C61.7964 49.6781 57.7887 54.8552 57.7459 54.9044C57.4282 55.2733 57.08 55.5808 56.7012 55.8144C56.0903 56.2018 55.5038 56.3371 54.9234 56.3371V56.3432ZM45.014 40.1354L45.6066 48.8665C45.631 49.2046 45.6188 49.5551 45.6066 49.8933C45.576 50.8156 45.5455 51.6948 46.2114 52.2605C47.6838 53.5271 50.1275 54.5048 51.8931 54.9106C52.2964 55.0028 52.669 55.1135 53.0295 55.218C54.3186 55.5869 55.2472 55.8575 56.3041 55.1811C56.6157 54.9844 56.915 54.7261 57.1777 54.4125C57.8987 53.5702 60.3974 49.7765 60.2202 49.1185C60.1836 49.094 59.3649 48.2577 47.867 36.5507C47.6654 36.3417 47.4333 36.2433 47.2195 36.2802C47.0056 36.3171 46.8162 36.4769 46.6818 36.7413L45.0079 40.1354H45.014Z" fill="black"/>
</g>
<g id="Group_36">
<path id="Vector_95" d="M32.2166 29.7829L32.115 29.9581C31.7052 30.665 31.9424 31.5724 32.6448 31.9848L35.4732 33.6455C36.1756 34.0579 37.0772 33.8192 37.487 33.1123L37.5886 32.9371C37.9983 32.2302 37.7611 31.3228 37.0588 30.9104L34.2303 29.2497C33.5279 28.8373 32.6264 29.076 32.2166 29.7829Z" fill="white"/>
<path id="Vector_96" d="M36.2164 34.2265C35.8926 34.2265 35.581 34.1404 35.2938 33.9744L32.4591 32.3081C31.5793 31.7916 31.2861 30.6541 31.7993 29.7749L31.9031 29.5965C32.4163 28.7111 33.5466 28.416 34.4202 28.9325L37.255 30.5988C38.1347 31.1153 38.428 32.2528 37.9148 33.132L37.8109 33.3103C37.5665 33.7346 37.1633 34.042 36.6868 34.165C36.5279 34.208 36.3691 34.2265 36.2102 34.2265H36.2164ZM33.4977 29.4244C33.1189 29.4244 32.7523 29.6211 32.5446 29.9716L32.4408 30.1499C32.1353 30.6787 32.3125 31.3551 32.8379 31.6625L35.6726 33.3288C35.9231 33.4763 36.2225 33.5194 36.5035 33.4394C36.7906 33.3657 37.0289 33.1812 37.1755 32.9291L37.2794 32.7508C37.5849 32.222 37.4077 31.5457 36.8823 31.2382L34.0536 29.5719C33.8826 29.4674 33.6871 29.4182 33.5038 29.4182L33.4977 29.4244Z" fill="black"/>
</g>
<g id="Group_37">
<path id="Vector_97" d="M48.4842 38.9056L48.3497 39.1392C47.8243 40.0492 46.7002 40.3935 45.8571 39.8955L38.9657 35.985C38.1226 35.4931 37.866 34.3371 38.3915 33.4271L38.5259 33.1935C39.0513 32.2835 40.1754 31.9391 41.0185 32.4372L47.9099 36.3477C48.753 36.8396 49.0096 37.9956 48.4842 38.9056Z" fill="white"/>
<path id="Vector_98" d="M46.7002 40.492C46.3459 40.492 45.9915 40.3997 45.6677 40.2153L38.7825 36.3109C37.7561 35.7083 37.4384 34.331 38.0738 33.2427L38.2082 33.009C38.8436 31.9146 40.1876 31.5149 41.2079 32.1175L48.0932 36.0219C49.1195 36.6244 49.4372 38.0017 48.8018 39.0901L48.6674 39.3237C48.2337 40.0738 47.4639 40.492 46.7002 40.492ZM40.1754 32.5848C39.6622 32.5848 39.1429 32.8738 38.8497 33.3841L38.7153 33.6178C38.2876 34.3556 38.4831 35.2717 39.1551 35.6653L46.0404 39.5697C46.7124 39.9632 47.6044 39.6865 48.0321 38.9486L48.1665 38.715C48.5941 37.9772 48.3986 37.061 47.7266 36.6675L40.8413 32.7631C40.6336 32.6401 40.4076 32.5848 40.1754 32.5848Z" fill="black"/>
</g>
<g id="Group_38">
<path id="Vector_99" d="M39.0188 45.1218C37.8933 44.6996 36.6408 45.2757 36.2213 46.4085C35.8018 47.5413 36.3742 48.8018 37.4997 49.224L43.3962 51.4357C44.5218 51.8579 45.7743 51.2818 46.1937 50.149C46.6132 49.0162 46.0408 47.7557 44.9153 47.3335L39.0188 45.1218Z" fill="white"/>
<path id="Vector_100" d="M44.1526 51.9468C43.8593 51.9468 43.56 51.8976 43.2667 51.787L37.3651 49.5735C36.7297 49.3337 36.2226 48.8602 35.9416 48.2392C35.6606 47.6182 35.63 46.9172 35.8683 46.2839C36.1065 45.6445 36.577 45.1341 37.194 44.8513C37.8172 44.5685 38.5075 44.5377 39.1368 44.7775L45.0385 46.991C46.352 47.4829 47.024 48.9647 46.5353 50.2867C46.1565 51.3135 45.179 51.953 44.1465 51.953L44.1526 51.9468ZM38.2632 45.3555C38.0066 45.3555 37.75 45.4108 37.5117 45.5215C37.0718 45.7244 36.7358 46.0872 36.5709 46.536C36.4059 46.991 36.4242 47.4829 36.6197 47.9195C36.8213 48.3622 37.1818 48.7003 37.6278 48.8664L43.5294 51.0799C43.9815 51.2459 44.4703 51.2274 44.9041 51.0307C45.3439 50.8278 45.6799 50.465 45.8449 50.0162C46.1931 49.0816 45.7166 48.0301 44.7819 47.6797L38.8802 45.4662C38.6786 45.3924 38.4648 45.3555 38.257 45.3555H38.2632Z" fill="black"/>
</g>
<g id="Group_39">
<path id="Vector_101" d="M36.3142 46.5852L36.1798 46.7819C35.6605 47.5505 34.6525 47.7903 33.9438 47.3046C33.4245 46.948 32.9296 46.5175 32.4409 46.1179C31.5 45.3432 30.1621 44.4762 31.1273 43.3449C31.9155 42.484 33.1496 42.6746 33.9743 43.1296C34.9091 43.6523 35.1473 43.8244 35.9721 44.2979C36.6808 44.7836 36.8335 45.8105 36.3081 46.579L36.3142 46.5852Z" fill="white"/>
<path id="Vector_102" d="M34.7685 47.9257C34.3958 47.9257 34.0414 47.815 33.736 47.606C33.2961 47.3047 32.8745 46.9542 32.4652 46.6099L31.9276 46.1672C31.2617 45.6323 30.5041 45.0297 30.4308 44.2427C30.3941 43.8491 30.5347 43.4618 30.8523 43.0929C31.7443 42.1091 33.1556 42.2382 34.1575 42.7977C34.7196 43.1113 35.0312 43.3019 35.3672 43.5048C35.5932 43.6401 35.8254 43.7815 36.1553 43.9721C36.6074 44.2796 36.8884 44.7407 36.9678 45.2756C37.0473 45.7983 36.919 46.3394 36.6135 46.7882L36.4791 46.985C36.1736 47.4338 35.7215 47.7535 35.2083 47.8704C35.0556 47.9073 34.909 47.9196 34.7623 47.9196L34.7685 47.9257ZM32.5508 43.1175C32.1414 43.1175 31.7321 43.2404 31.4083 43.5909C31.2372 43.7938 31.1578 43.9906 31.1761 44.175C31.2189 44.6423 31.8421 45.1465 32.398 45.5831L32.9479 46.0319C33.345 46.3578 33.7482 46.7021 34.1636 46.985C34.4202 47.1633 34.7379 47.2125 35.0556 47.1387C35.3855 47.0587 35.6788 46.8558 35.8804 46.5607L36.0148 46.3639C36.2164 46.0688 36.2958 45.7183 36.2469 45.3802C36.1981 45.0543 36.0331 44.7776 35.7765 44.5993C35.4649 44.421 35.2267 44.2734 35.0006 44.1381C34.6707 43.9414 34.3652 43.7569 33.8093 43.4495C33.5099 43.2835 33.0395 43.1113 32.5569 43.1113L32.5508 43.1175Z" fill="black"/>
</g>
<g id="Group_40">
<path id="Vector_103" d="M31.7628 31.1891C32.5254 31.1891 33.1435 30.567 33.1435 29.7995C33.1435 29.0321 32.5254 28.4099 31.7628 28.4099C31.0003 28.4099 30.3821 29.0321 30.3821 29.7995C30.3821 30.567 31.0003 31.1891 31.7628 31.1891Z" fill="#00FFFF"/>
<path id="Vector_104" d="M31.7628 31.4288C31.5001 31.4288 31.2374 31.3673 30.993 31.232C30.211 30.8016 29.9238 29.8117 30.3515 29.0247C30.7791 28.2377 31.7628 27.9487 32.5448 28.3791C32.9235 28.5881 33.1985 28.9325 33.3207 29.3506C33.4428 29.7687 33.394 30.2052 33.1862 30.5864C32.893 31.1275 32.337 31.435 31.7689 31.435L31.7628 31.4288ZM31.7628 28.6435C31.3534 28.6435 30.9624 28.8587 30.7547 29.246C30.4492 29.8056 30.657 30.5127 31.2129 30.8139C31.7689 31.1214 32.4653 30.9123 32.7708 30.3528C33.0763 29.7933 32.8686 29.0862 32.3126 28.7849C32.1354 28.6865 31.9522 28.6435 31.7628 28.6435Z" fill="black"/>
</g>
<g id="Group_41">
<path id="Vector_105" d="M31.7627 30.3587C32.0698 30.3587 32.3187 30.1082 32.3187 29.7992C32.3187 29.4901 32.0698 29.2396 31.7627 29.2396C31.4557 29.2396 31.2068 29.4901 31.2068 29.7992C31.2068 30.1082 31.4557 30.3587 31.7627 30.3587Z" fill="white"/>
<path id="Vector_106" d="M31.7627 30.3959C31.665 30.3959 31.5672 30.3713 31.4817 30.3221C31.3412 30.2483 31.2434 30.1192 31.2006 29.9655C31.1579 29.8117 31.1762 29.6519 31.2495 29.5105C31.3228 29.369 31.4511 29.2707 31.6039 29.2215C31.7566 29.1784 31.9154 29.1969 32.056 29.2707C32.3431 29.4305 32.447 29.7872 32.2942 30.0761C32.2209 30.2176 32.0926 30.3159 31.9399 30.359C31.8849 30.3774 31.8299 30.3836 31.7749 30.3836L31.7627 30.3959ZM31.7627 29.283C31.7138 29.283 31.665 29.2891 31.6161 29.3014C31.4817 29.3383 31.3778 29.4305 31.3106 29.5474C31.1762 29.7994 31.2678 30.113 31.5122 30.2483C31.6344 30.3159 31.7688 30.3282 31.9032 30.2913C32.0376 30.2544 32.1415 30.1622 32.2087 30.0454C32.3431 29.7933 32.2515 29.4797 32.0071 29.3444C31.9277 29.3014 31.8482 29.283 31.7627 29.283Z" fill="black"/>
</g>
<g id="Group_42">
<path id="Vector_107" d="M38.1043 34.6814C38.8668 34.6814 39.485 34.0593 39.485 33.2918C39.485 32.5244 38.8668 31.9022 38.1043 31.9022C37.3417 31.9022 36.7236 32.5244 36.7236 33.2918C36.7236 34.0593 37.3417 34.6814 38.1043 34.6814Z" fill="#00FFFF"/>
<path id="Vector_108" d="M38.1043 34.9151C37.8416 34.9151 37.5789 34.8536 37.3345 34.7184C36.5525 34.288 36.2654 33.298 36.693 32.511C37.1207 31.724 38.1043 31.435 38.8863 31.8654C39.6683 32.2958 39.9555 33.2857 39.5278 34.0728C39.2345 34.6138 38.6786 34.9213 38.1043 34.9213V34.9151ZM38.1104 32.1359C37.7011 32.1359 37.3101 32.3511 37.0963 32.7385C36.7908 33.298 36.9985 34.0051 37.5545 34.3064C38.1104 34.6077 38.813 34.4048 39.1124 33.8453C39.4178 33.2857 39.2101 32.5786 38.6542 32.2774C38.477 32.179 38.2937 32.1359 38.1043 32.1359H38.1104Z" fill="black"/>
</g>
<g id="Group_43">
<path id="Vector_109" d="M38.1043 33.8511C38.4113 33.8511 38.6602 33.6006 38.6602 33.2916C38.6602 32.9826 38.4113 32.7321 38.1043 32.7321C37.7972 32.7321 37.5483 32.9826 37.5483 33.2916C37.5483 33.6006 37.7972 33.8511 38.1043 33.8511Z" fill="white"/>
<path id="Vector_110" d="M38.1043 33.8821C38.0066 33.8821 37.9088 33.8575 37.8233 33.8084C37.5361 33.6485 37.4323 33.2857 37.585 33.0029C37.7439 32.7139 38.1043 32.6094 38.3854 32.7631C38.6725 32.923 38.7764 33.2857 38.6236 33.5686C38.5136 33.7653 38.312 33.876 38.1043 33.876V33.8821ZM38.1104 32.7754C37.9271 32.7754 37.75 32.8738 37.6583 33.0459C37.5239 33.298 37.6156 33.6116 37.8599 33.7469C38.1104 33.8821 38.422 33.7899 38.5564 33.544C38.6908 33.2919 38.5992 32.9783 38.3548 32.843C38.2754 32.8 38.1899 32.7815 38.1104 32.7815V32.7754Z" fill="black"/>
</g>
<g id="Group_44">
<path id="Vector_111" d="M35.9965 47.7167C36.7591 47.7167 37.3772 47.0945 37.3772 46.3271C37.3772 45.5596 36.7591 44.9375 35.9965 44.9375C35.234 44.9375 34.6158 45.5596 34.6158 46.3271C34.6158 47.0945 35.234 47.7167 35.9965 47.7167Z" fill="#00FFFF"/>
<path id="Vector_112" d="M35.9904 47.9502C35.7277 47.9502 35.465 47.8887 35.2206 47.7534C34.8419 47.5444 34.5669 47.2 34.4447 46.7819C34.3226 46.3638 34.3714 45.9273 34.5792 45.5461C34.7869 45.1648 35.129 44.8882 35.5444 44.7652C35.9599 44.6422 36.3936 44.6914 36.7724 44.9005C37.5544 45.3309 37.8416 46.3208 37.4139 47.1078C37.1207 47.6489 36.5647 47.9563 35.9965 47.9563L35.9904 47.9502ZM35.9965 45.1648C35.8866 45.1648 35.7766 45.1833 35.6727 45.214C35.3795 45.3001 35.1351 45.4969 34.9885 45.7674C34.8419 46.0379 34.8052 46.3515 34.8968 46.6467C34.9824 46.9418 35.1779 47.1877 35.4467 47.3353C36.0026 47.6427 36.7052 47.4337 37.0046 46.8742C37.31 46.3146 37.1023 45.6075 36.5464 45.3063C36.3753 45.214 36.1859 45.1648 35.9965 45.1648Z" fill="black"/>
</g>
<g id="Group_45">
<path id="Vector_113" d="M35.9966 46.8864C36.3037 46.8864 36.5526 46.6359 36.5526 46.3269C36.5526 46.0178 36.3037 45.7673 35.9966 45.7673C35.6896 45.7673 35.4407 46.0178 35.4407 46.3269C35.4407 46.6359 35.6896 46.8864 35.9966 46.8864Z" fill="white"/>
<path id="Vector_114" d="M35.9966 46.9235C35.8988 46.9235 35.8011 46.8989 35.7156 46.8497C35.4284 46.6898 35.3246 46.3332 35.4773 46.0442C35.5506 45.9028 35.6789 45.8044 35.8316 45.7614C35.9844 45.7122 36.1432 45.7306 36.2837 45.8106C36.4243 45.8844 36.522 46.0135 36.5648 46.1672C36.6075 46.3209 36.5892 46.4808 36.5159 46.6222C36.4426 46.7636 36.3143 46.862 36.1615 46.9112C36.1066 46.9296 36.0516 46.9358 35.9966 46.9358V46.9235ZM35.9966 45.8044C35.9477 45.8044 35.8988 45.8106 35.85 45.8229C35.7217 45.8598 35.6117 45.952 35.5445 46.0688C35.4101 46.3209 35.5017 46.6345 35.7461 46.7698C35.8683 46.8374 36.0027 46.8497 36.1371 46.8128C36.2715 46.7759 36.3754 46.6837 36.4426 46.5669C36.577 46.3148 36.4853 46.0012 36.241 45.8659C36.1615 45.8229 36.0821 45.8044 35.9966 45.8044Z" fill="black"/>
</g>
<g id="Group_46">
<path id="Vector_115" d="M44.9346 52.408C46.4327 52.408 47.6471 51.1857 47.6471 49.678C47.6471 48.1703 46.4327 46.948 44.9346 46.948C43.4364 46.948 42.222 48.1703 42.222 49.678C42.222 51.1857 43.4364 52.408 44.9346 52.408Z" fill="#00FFFF"/>
<path id="Vector_116" d="M44.9346 52.6416C44.4458 52.6416 43.9632 52.5187 43.5233 52.2789C42.8329 51.8977 42.332 51.2705 42.1059 50.5142C41.8799 49.7579 41.9715 48.9525 42.3503 48.2577C43.1262 46.825 44.9224 46.2901 46.3458 47.0771C47.7693 47.8641 48.2947 49.6657 47.5188 51.0983C47.1401 51.7931 46.5169 52.2973 45.7655 52.5248C45.4905 52.6048 45.2095 52.6478 44.9346 52.6478V52.6416ZM44.9407 47.1816C44.0609 47.1816 43.2117 47.6489 42.7596 48.479C42.4419 49.0631 42.3686 49.7395 42.558 50.3789C42.7474 51.0184 43.169 51.5472 43.7494 51.8669C44.3297 52.1866 45.0018 52.2604 45.6372 52.0698C46.2725 51.8792 46.7979 51.455 47.1156 50.8708C47.7693 49.6657 47.3295 48.1408 46.1259 47.4829C45.7471 47.2739 45.3439 47.1755 44.9407 47.1755V47.1816Z" fill="black"/>
</g>
<g id="Group_47">
<path id="Vector_117" d="M44.9348 51.043C45.6838 51.043 46.2911 50.4319 46.2911 49.678C46.2911 48.9241 45.6838 48.313 44.9348 48.313C44.1857 48.313 43.5785 48.9241 43.5785 49.678C43.5785 50.4319 44.1857 51.043 44.9348 51.043Z" fill="white"/>
<path id="Vector_118" d="M44.9346 51.1598C44.6964 51.1598 44.452 51.1044 44.2321 50.9815C43.5173 50.588 43.2546 49.6841 43.6456 48.9709C44.0366 48.2576 44.9285 47.9871 45.6433 48.3806C46.3581 48.7741 46.6208 49.678 46.2298 50.3912C45.961 50.8831 45.4539 51.1659 44.9346 51.1659V51.1598ZM44.9407 48.4298C44.5009 48.4298 44.0732 48.6634 43.8472 49.0815C43.5173 49.6841 43.7433 50.4465 44.342 50.7786C44.9408 51.1106 45.6983 50.8831 46.0221 50.2805C46.352 49.678 46.126 48.9155 45.5272 48.5835C45.3379 48.479 45.1363 48.4298 44.9346 48.4298H44.9407Z" fill="black"/>
</g>
<g id="Group_48">
<path id="Vector_119" d="M46.529 41.0022C48.0271 41.0022 49.2416 39.78 49.2416 38.2722C49.2416 36.7645 48.0271 35.5422 46.529 35.5422C45.0309 35.5422 43.8165 36.7645 43.8165 38.2722C43.8165 39.78 45.0309 41.0022 46.529 41.0022Z" fill="#00FFFF"/>
<path id="Vector_120" d="M46.5291 41.2358C46.0404 41.2358 45.5577 41.1129 45.1179 40.8731C43.6944 40.0922 43.1629 38.2845 43.9449 36.8519C44.7269 35.4192 46.5169 34.8904 47.9404 35.6713C49.3639 36.4583 49.8893 38.2599 49.1134 39.6925C48.7346 40.3873 48.1114 40.8915 47.36 41.119C47.0851 41.199 46.804 41.242 46.5291 41.242V41.2358ZM46.5352 35.7758C45.6555 35.7758 44.8063 36.2431 44.3542 37.0732C43.7005 38.2783 44.1404 39.8032 45.3439 40.4611C45.9243 40.7808 46.5963 40.8546 47.2317 40.664C47.8671 40.4734 48.3925 40.0492 48.7102 39.465C49.0279 38.8809 49.1012 38.2046 48.9118 37.5651C48.7285 36.9256 48.3008 36.3969 47.7205 36.0771C47.3417 35.8681 46.9384 35.7697 46.5352 35.7697V35.7758Z" fill="black"/>
</g>
<g id="Group_49">
<path id="Vector_121" d="M46.5294 39.6372C47.2784 39.6372 47.8857 39.0261 47.8857 38.2722C47.8857 37.5184 47.2784 36.9072 46.5294 36.9072C45.7803 36.9072 45.1731 37.5184 45.1731 38.2722C45.1731 39.0261 45.7803 39.6372 46.5294 39.6372Z" fill="white"/>
<path id="Vector_122" d="M46.5291 39.7541C46.2909 39.7541 46.0465 39.6988 45.8265 39.5758C45.1117 39.1823 44.849 38.2785 45.24 37.5652C45.631 36.852 46.5291 36.5814 47.2378 36.975C47.9526 37.3685 48.2153 38.2723 47.8243 38.9856C47.5555 39.4774 47.0484 39.7541 46.5291 39.7541ZM46.5352 37.0241C46.0954 37.0241 45.6677 37.2578 45.4417 37.6759C45.1117 38.2785 45.3378 39.0409 45.9365 39.3729C46.5352 39.705 47.2928 39.4774 47.6227 38.8749C47.9526 38.2723 47.7266 37.5099 47.1278 37.184C46.9385 37.0795 46.7368 37.0303 46.5352 37.0303V37.0241Z" fill="black"/>
</g>
<g id="Group_50">
<path id="Vector_123" d="M61.5398 53.3673C62.5051 52.3527 62.5906 50.6127 61.7353 49.5059L60.2874 47.6306C59.4321 46.5238 58.1735 46.6222 57.4954 47.8519L54.0497 54.1112C53.3716 55.341 53.7015 56.8105 54.7767 57.3823C55.852 57.9541 57.5259 57.5914 58.4912 56.5768L61.5398 53.3734V53.3673Z" fill="white"/>
<path id="Vector_124" d="M55.9497 58.0217C55.467 58.0217 55.0027 57.9233 54.6056 57.7143C54.0435 57.4191 53.6342 56.9026 53.4387 56.257C53.2188 55.5069 53.3226 54.6584 53.7258 53.9267L57.1715 47.6674C57.5625 46.9603 58.1368 46.5422 58.7966 46.493C59.4503 46.4438 60.0857 46.7635 60.5806 47.403L62.0285 49.2783C62.9938 50.5326 62.896 52.4818 61.8086 53.6254L58.76 56.8289C58.033 57.5913 56.9516 58.0217 55.9497 58.0217ZM58.931 47.237C58.931 47.237 58.8822 47.237 58.8577 47.237C58.4606 47.2677 58.0941 47.5505 57.8252 48.0301L54.3795 54.2895C54.0741 54.8428 53.9947 55.4823 54.1596 56.0418C54.294 56.4907 54.575 56.8473 54.9599 57.0502C55.8886 57.5421 57.3854 57.2039 58.2346 56.3124L61.2831 53.1089C62.114 52.2358 62.1934 50.6925 61.4542 49.7395L60.0063 47.8641C59.6947 47.4583 59.3159 47.237 58.9433 47.237H58.931Z" fill="black"/>
</g>
</g>
<g id="Clip path group_2">
<mask id="mask1_4551_115311" style="mask-type:luminance" maskUnits="userSpaceOnUse" x="17" y="13" width="13" height="16">
<g id="clippath-1">
<path id="Vector_125" d="M18.7924 13.6223L28.9095 20.2137C29.4227 20.5518 29.4227 21.3081 28.9095 21.6463L18.7924 28.2377C18.2303 28.6066 17.485 28.1946 17.485 27.5244V14.3479C17.485 13.6715 18.2303 13.2657 18.7924 13.6346V13.6223Z" fill="white"/>
</g>
</mask>
<g mask="url(#mask1_4551_115311)">
<g id="Group_51">
<path id="Vector_126" d="M16.3511 11.863L14.7778 14.3171L29.886 24.1276L31.4593 21.6734L16.3511 11.863Z" fill="url(#paint6_linear_4551_115311)"/>
</g>
</g>
</g>
</g>
</g>
</g>
</g>
</g>
<defs>
<filter id="filter0_d_4551_115311" x="16.485" y="12.4951" width="13.8094" height="16.8811" filterUnits="userSpaceOnUse" color-interpolation-filters="sRGB">
<feFlood flood-opacity="0" result="BackgroundImageFix"/>
<feColorMatrix in="SourceAlpha" type="matrix" values="0 0 0 0 0 0 0 0 0 0 0 0 0 0 0 0 0 0 127 0" result="hardAlpha"/>
<feOffset/>
<feGaussianBlur stdDeviation="0.5"/>
<feColorMatrix type="matrix" values="0 0 0 0 0 0 0 0 0 0 0 0 0 0 0 0 0 0 0.75 0"/>
<feBlend mode="normal" in2="BackgroundImageFix" result="effect1_dropShadow_4551_115311"/>
<feBlend mode="normal" in="SourceGraphic" in2="effect1_dropShadow_4551_115311" result="shape"/>
</filter>
<linearGradient id="paint0_linear_4551_115311" x1="27.4434" y1="67.6875" x2="27.4434" y2="-9.68713" gradientUnits="userSpaceOnUse">
<stop offset="0.2" stop-color="#00FFFF"/>
<stop offset="0.7" stop-color="#FFFF00"/>
</linearGradient>
<linearGradient id="paint1_linear_4551_115311" x1="22.4886" y1="39.7417" x2="22.4886" y2="2.41943" gradientUnits="userSpaceOnUse">
<stop stop-color="#00FFFF"/>
<stop offset="1" stop-color="#6C00AA"/>
</linearGradient>
<linearGradient id="paint2_linear_4551_115311" x1="22.4887" y1="3.33557" x2="22.4887" y2="38.8256" gradientUnits="userSpaceOnUse">
<stop stop-color="#00FFFF"/>
<stop offset="1" stop-color="#6C00AA"/>
</linearGradient>
<linearGradient id="paint3_linear_4551_115311" x1="22.0426" y1="32.7816" x2="22.0426" y2="8.45752" gradientUnits="userSpaceOnUse">
<stop stop-color="#FF8DA4"/>
<stop offset="1" stop-color="#AA0047"/>
</linearGradient>
<linearGradient id="paint4_linear_4551_115311" x1="22.0426" y1="7.0802" x2="22.0426" y2="34.1588" gradientUnits="userSpaceOnUse">
<stop stop-color="#00FFFF"/>
<stop offset="1" stop-color="#6C00AA"/>
</linearGradient>
<linearGradient id="paint5_linear_4551_115311" x1="22.0426" y1="32.5661" x2="22.0426" y2="8.24207" gradientUnits="userSpaceOnUse">
<stop stop-color="#00FFFF"/>
<stop offset="1" stop-color="#6C00AA"/>
</linearGradient>
<linearGradient id="paint6_linear_4551_115311" x1="22.0907" y1="19.593" x2="23.6867" y2="17.1352" gradientUnits="userSpaceOnUse">
<stop stop-color="white" stop-opacity="0"/>
<stop offset="1" stop-color="#727171"/>
</linearGradient>
<clipPath id="clip0_4551_115311">
<rect width="208" height="60" fill="white"/>
</clipPath>
</defs>
</svg>
